<?xml version="1.0" encoding="utf-8"?>
<!-- Generator: Adobe Illustrator 26.0.1, SVG Export Plug-In . SVG Version: 6.00 Build 0)  -->
<svg version="1.1" id="Layer_1" xmlns="http://www.w3.org/2000/svg" xmlns:xlink="http://www.w3.org/1999/xlink" x="0px" y="0px"
	 viewBox="0 0 8.5 8.5" style="enable-background:new 0 0 8.5 8.5;" xml:space="preserve">
<style type="text/css">
	.st0{fill:#1D1D1B;}
	.st1{fill:#FFFFFF;}
	.st2{fill:#1D71B8;}
	.st3{fill:#E6332A;}
</style>
<g>
	<circle class="st0" cx="4.25" cy="4.25" r="2.83"/>
	<g id="uMPr1H.tif_00000097461871418593233460000013752600796742789272_">
		<g>
			<path class="st1" d="M5.26,4.19c0.04,0,0.08,0,0.12,0c0.04,0,0.04,0,0.04-0.04C5.41,4.02,5.38,3.91,5.33,3.79
				c-0.17-0.38-0.46-0.62-0.87-0.7C4.1,3.02,3.76,3.11,3.48,3.36c-0.24,0.2-0.37,0.46-0.4,0.77C3.04,4.47,3.13,4.77,3.36,5.03
				c0.19,0.22,0.42,0.35,0.71,0.39c0.31,0.05,0.59-0.02,0.85-0.2c0.05-0.03,0.04-0.04,0.08,0.01c0.07,0.09,0.13,0.17,0.2,0.26
				C5.21,5.52,5.2,5.53,5.18,5.54C4.95,5.71,4.7,5.81,4.41,5.84c-0.3,0.03-0.58-0.02-0.85-0.15C3.26,5.55,3.02,5.32,2.86,5.03
				c-0.11-0.2-0.18-0.42-0.2-0.65C2.63,3.96,2.74,3.57,3.01,3.24c0.25-0.3,0.56-0.49,0.95-0.56C4.45,2.6,4.89,2.72,5.27,3.03
				c0.3,0.25,0.48,0.57,0.55,0.95C5.82,4.04,5.83,4.1,5.83,4.16c0,0.02,0.01,0.03,0.03,0.03c0.09,0,0.18,0,0.27,0
				c0.01,0,0.02,0,0.03,0.01c0,0.01-0.01,0.02-0.01,0.03c-0.17,0.25-0.33,0.5-0.5,0.75C5.63,5,5.63,4.99,5.61,4.97
				c-0.17-0.25-0.33-0.5-0.5-0.75C5.11,4.21,5.09,4.2,5.1,4.19c0.01-0.01,0.02,0,0.03-0.01C5.17,4.19,5.22,4.19,5.26,4.19z"/>
		</g>
	</g>
</g>
</svg>
