<?xml version="1.0" encoding="utf-8"?>
<!-- Generator: Adobe Illustrator 26.0.1, SVG Export Plug-In . SVG Version: 6.00 Build 0)  -->
<svg version="1.1" id="Layer_1" xmlns="http://www.w3.org/2000/svg" xmlns:xlink="http://www.w3.org/1999/xlink" x="0px" y="0px"
	 viewBox="0 0 18.43 18.43" style="enable-background:new 0 0 18.43 18.43;" xml:space="preserve">
<style type="text/css">
	.st0{fill:#1D71B8;}
	.st1{fill:#FFFFFF;}
	.st2{fill:#C6C6C6;}
	.st3{fill:none;}
	.st4{fill:#FFFFFF;stroke:#1D71B8;stroke-width:0.05;stroke-miterlimit:10;}
	.st5{fill:none;stroke:#1D71B8;stroke-width:0.2;stroke-miterlimit:10;}
	.st6{fill:#1D71B8;stroke:#1D71B8;stroke-width:0.05;stroke-linejoin:round;stroke-miterlimit:10;}
	.st7{fill:#C6C6C6;stroke:#C6C6C6;stroke-width:0.05;stroke-linejoin:round;stroke-miterlimit:10;}
	.st8{fill:#B2B2B2;}
</style>
<g>
	<circle class="st0" cx="9.21" cy="9.21" r="8.91"/>
	<g>
		<path class="st1" d="M14.5,8.56c-0.95-0.95-1.91-1.91-2.86-2.86l-1.9-1.91c-0.22-0.22-0.44-0.21-0.65,0
			C7.5,5.38,5.91,6.96,4.31,8.56C4.29,8.58,4.26,8.6,4.25,8.62c-0.1,0.12-0.13,0.27-0.06,0.42C4.24,9.19,4.36,9.28,4.52,9.3
			c0.05,0.01,0.09,0,0.13,0h0.64v4.38c0,0.32,0.15,0.47,0.47,0.47h7.29c0.32,0,0.47-0.15,0.47-0.47V9.3l0.11,0c0.18,0,0.36,0,0.55,0
			c0.09,0.01,0.34,0,0.45-0.26C14.73,8.78,14.55,8.61,14.5,8.56z"/>
	</g>
	<g>
		<path class="st0" d="M8.02,11.21h0.46v-0.94H8.02V9.79h0.46V9.45c0-0.14,0.03-0.28,0.08-0.41C8.6,8.9,8.68,8.78,8.78,8.68
			C8.88,8.58,9,8.49,9.14,8.43c0.15-0.06,0.31-0.1,0.51-0.1c0.18,0,0.36,0.02,0.53,0.07c0.17,0.05,0.33,0.13,0.46,0.25l-0.47,0.51
			c-0.06-0.06-0.13-0.11-0.22-0.15C9.87,8.98,9.8,8.96,9.74,8.96c-0.11,0-0.19,0.02-0.26,0.05C9.4,9.05,9.35,9.09,9.3,9.15
			C9.26,9.2,9.23,9.27,9.21,9.34C9.2,9.41,9.19,9.48,9.19,9.55v0.23h0.74v0.49H9.19v0.94h1.2v0.54H8.02V11.21z"/>
	</g>
</g>
</svg>
