<?xml version="1.0" encoding="utf-8"?>
<!-- Generator: Adobe Illustrator 26.0.1, SVG Export Plug-In . SVG Version: 6.00 Build 0)  -->
<svg version="1.1" id="Layer_1" xmlns="http://www.w3.org/2000/svg" xmlns:xlink="http://www.w3.org/1999/xlink" x="0px" y="0px"
	 viewBox="0 0 18.43 18.43" style="enable-background:new 0 0 18.43 18.43;" xml:space="preserve">
<style type="text/css">
	.st0{fill:#1D71B8;}
	.st1{fill:#FFFFFF;}
	.st2{fill:#C6C6C6;}
	.st3{fill:none;}
	.st4{fill:#FFFFFF;stroke:#1D71B8;stroke-width:0.05;stroke-miterlimit:10;}
	.st5{fill:none;stroke:#1D71B8;stroke-width:0.2;stroke-miterlimit:10;}
	.st6{fill:#1D71B8;stroke:#1D71B8;stroke-width:0.05;stroke-linejoin:round;stroke-miterlimit:10;}
	.st7{fill:#C6C6C6;stroke:#C6C6C6;stroke-width:0.05;stroke-linejoin:round;stroke-miterlimit:10;}
	.st8{fill:#B2B2B2;}
</style>
<g>
	<g>
		<path class="st0" d="M9.21,1.8c4.09,0,7.41,3.33,7.41,7.41c0,4.09-3.33,7.41-7.41,7.41S1.8,13.3,1.8,9.21
			C1.8,5.13,5.13,1.8,9.21,1.8 M9.21,0.3C4.29,0.3,0.3,4.29,0.3,9.21c0,4.92,3.99,8.91,8.91,8.91s8.91-3.99,8.91-8.91
			C18.12,4.29,14.13,0.3,9.21,0.3L9.21,0.3z"/>
	</g>
	<g>
		<g id="_x33_WNzoU.tif_00000072999766486457854280000008852599762615308691_">
			<g>
				<path class="st0" d="M8.53,0.32c0.46,0,0.93,0,1.39,0c0.2,0.03,0.4,0.05,0.6,0.08c2.23,0.35,4.09,1.38,5.52,3.11
					c1.69,2.03,2.35,4.39,1.98,7.01c-0.3,2.1-1.28,3.86-2.85,5.28c-1.54,1.4-3.36,2.16-5.44,2.29c-1.49,0.09-2.92-0.17-4.26-0.83
					c-2.55-1.24-4.18-3.24-4.9-5.98C0.45,10.83,0.4,10.36,0.34,9.9c0-0.46,0-0.93,0-1.39c0.01-0.04,0.02-0.08,0.02-0.12
					C0.47,7.18,0.81,6.04,1.4,4.98c1.3-2.32,3.23-3.8,5.81-4.45C7.65,0.43,8.09,0.39,8.53,0.32z M14.77,13.56
					c0.08,0.08,0.14,0.06,0.2-0.02c0.08-0.12,0.18-0.23,0.25-0.35c0.97-1.49,1.36-3.11,1.14-4.87c-0.24-1.91-1.12-3.49-2.61-4.7
					c-1.44-1.17-3.11-1.7-4.97-1.59C7.38,2.1,6.1,2.57,4.96,3.4c-0.2,0.15-0.2,0.15-0.02,0.33c1.3,1.3,2.59,2.59,3.89,3.89
					C9.12,7.91,14.34,13.13,14.77,13.56z M8.92,10.1C8.9,10.07,7.09,8.27,7.05,8.23c-1.1-1.11-2.21-2.21-3.31-3.31
					C3.57,4.74,3.56,4.74,3.43,4.93c-1.12,1.54-1.6,3.26-1.35,5.14c0.38,2.8,1.92,4.75,4.52,5.84c1.16,0.49,2.38,0.6,3.63,0.42
					c1.21-0.17,2.3-0.62,3.29-1.35c0.12-0.09,0.15-0.16,0.03-0.27c-0.14-0.12-0.27-0.26-0.39-0.39C13.07,14.24,9.18,10.36,8.92,10.1
					z"/>
			</g>
		</g>
		<g id="_x39_VL43L.tif_00000101097828077827236040000010273919023118036924_">
			<g>
				<path class="st0" d="M12.82,13.32c0,0.29-0.17,0.47-0.47,0.47c-0.9-0.01-1.81,0-2.71,0c-0.34,0-0.47-0.13-0.47-0.46
					c0-1.66,0-3.33,0-4.99c0-0.11,0.02-0.23,0.04-0.34c0.11-0.57,0.43-1,0.94-1.27c0.09-0.05,0.11-0.1,0.11-0.2c0-0.57,0-1.13,0-1.7
					c0-0.1,0.03-0.13,0.13-0.13c0.4,0,0.8,0.01,1.2,0c0.11,0,0.14,0.04,0.14,0.14c0,0.56,0,1.13,0,1.69c0,0.09,0.03,0.15,0.11,0.2
					c0.66,0.37,0.98,0.93,0.98,1.68c0,0.81,0,1.62,0,2.43C12.82,11.65,12.81,12.49,12.82,13.32z"/>
				<path class="st0" d="M8.32,8.32c0.11,0,0.14,0.03,0.14,0.14c0,0.55,0,1.1,0,1.64c0,0.87-0.51,1.55-1.35,1.8
					C7.04,11.92,7,11.95,7,12.03c0,0.3,0,0.6,0,0.91c0,0.07,0.02,0.11,0.09,0.13c0.26,0.08,0.52,0.17,0.79,0.26
					c0.24,0.08,0.21,0.04,0.21,0.29c0,0.15,0,0.16-0.16,0.16c-0.84,0-1.67,0-2.51,0c-0.29,0-0.25,0.04-0.26-0.26
					c0-0.09,0.04-0.13,0.12-0.16c0.28-0.09,0.57-0.19,0.85-0.28c0.09-0.03,0.12-0.08,0.12-0.17c-0.01-0.28-0.01-0.56,0-0.84
					c0-0.11-0.03-0.15-0.14-0.18c-0.75-0.2-1.31-0.93-1.32-1.71c0-0.57,0-1.15,0-1.72c0-0.11,0.03-0.14,0.14-0.14
					c0.56,0,1.12,0,1.68,0C7.19,8.32,7.76,8.32,8.32,8.32z"/>
				<path class="st0" d="M10.98,3.6c-0.2,0-0.41,0-0.61,0c-0.08,0-0.11,0.03-0.11,0.11c0,0.17,0,0.35,0,0.52
					c0,0.07,0.02,0.11,0.1,0.11c0.42,0,0.85,0,1.27,0c0.07,0,0.1-0.03,0.1-0.1c0-0.18,0-0.36,0-0.53c0-0.08-0.03-0.11-0.11-0.11
					C11.4,3.6,11.19,3.6,10.98,3.6z"/>
			</g>
		</g>
	</g>
</g>
</svg>
