<?xml version="1.0" encoding="utf-8"?>
<!-- Generator: Adobe Illustrator 26.0.1, SVG Export Plug-In . SVG Version: 6.00 Build 0)  -->
<svg version="1.1" id="Layer_1" xmlns="http://www.w3.org/2000/svg" xmlns:xlink="http://www.w3.org/1999/xlink" x="0px" y="0px"
	 viewBox="0 0 18.43 18.43" style="enable-background:new 0 0 18.43 18.43;" xml:space="preserve">
<style type="text/css">
	.st0{fill:#1D71B8;}
	.st1{fill:#FFFFFF;}
	.st2{fill:#C6C6C6;}
	.st3{fill:none;}
	.st4{fill:#FFFFFF;stroke:#1D71B8;stroke-width:0.05;stroke-miterlimit:10;}
	.st5{fill:none;stroke:#1D71B8;stroke-width:0.2;stroke-miterlimit:10;}
	.st6{fill:#1D71B8;stroke:#1D71B8;stroke-width:0.05;stroke-linejoin:round;stroke-miterlimit:10;}
	.st7{fill:#C6C6C6;stroke:#C6C6C6;stroke-width:0.05;stroke-linejoin:round;stroke-miterlimit:10;}
	.st8{fill:#B2B2B2;}
</style>
<g>
	<circle class="st0" cx="9.21" cy="9.21" r="8.91"/>
	<g>
		<g>
			<path class="st3" d="M6.49,9.33c0-0.25,0.05-0.49,0.12-0.72c-0.34,0-0.68,0-1.02,0C5.07,8.62,4.68,8.95,4.61,9.44
				c-0.04,0.25-0.06,0.5-0.06,0.76c-0.01,1.07,0,2.13,0,3.2c0,0.08-0.01,0.2,0.04,0.24c0.11,0.09,0.25,0.18,0.39,0.19
				c0.19,0.01,0.12-0.17,0.13-0.27c0.01-0.38,0-0.76,0-1.14c0-0.05-0.02-0.11,0.01-0.15c0.05-0.08,0.12-0.14,0.18-0.21
				c0.07,0.07,0.15,0.14,0.2,0.22c0.03,0.04,0.01,0.12,0.01,0.17c0,0.47,0,0.95,0,1.42c0,0.27,0.14,0.4,0.39,0.4
				c0.3,0,0.25-0.2,0.25-0.37c0-0.46,0-0.91,0-1.37c0-0.07-0.02-0.15,0.01-0.2c0.05-0.09,0.13-0.16,0.19-0.23
				c0.07,0.07,0.15,0.14,0.2,0.22c0.03,0.04,0.01,0.12,0.01,0.18c0,0.57,0,1.15,0,1.72c0,0.24,0.2,0.38,0.42,0.26
				c0.11-0.06,0.21-0.21,0.21-0.33c0.02-0.56,0.01-1.12,0.01-1.67c0-0.14-0.01-0.3,0.19-0.3c0.2,0,0.19,0.15,0.19,0.29
				c0,0.5,0.01,1,0,1.5c0,0.22,0.11,0.27,0.3,0.24c0.24-0.04,0.31-0.2,0.31-0.4c0-0.67,0-1.34,0-2.01
				C7.19,11.37,6.49,10.43,6.49,9.33z"/>
			<path class="st3" d="M13.82,8.85c0.05-1.3,0.04-2.6,0.06-3.9c0-0.22-0.15-0.35-0.37-0.35c-0.27,0-0.19,0.19-0.19,0.33
				c-0.01,0.38,0,0.76,0,1.14c0,0.14,0.02,0.32-0.21,0.31c-0.2-0.01-0.19-0.16-0.19-0.3c0-0.11,0-0.22,0-0.33c0-0.41,0-0.81,0-1.22
				c0-0.23-0.16-0.37-0.38-0.37c-0.26,0-0.27,0.16-0.26,0.34c0.01,0.15,0,0.3,0,0.46c0,0.37,0.01,0.74-0.01,1.12
				c-0.01,0.09-0.11,0.23-0.19,0.25c-0.17,0.03-0.21-0.11-0.21-0.25c0-0.06,0-0.12,0-0.18c0-0.57,0-1.13,0-1.7
				c0-0.21-0.15-0.32-0.36-0.27c-0.2,0.05-0.28,0.17-0.28,0.37c0.01,0.54,0,1.08,0,1.62c0,0.14,0.04,0.32-0.19,0.32
				c-0.23,0.01-0.2-0.17-0.2-0.31c0-0.5-0.01-1,0-1.5c0-0.19-0.09-0.24-0.26-0.22c-0.23,0.02-0.34,0.14-0.34,0.43
				c0,0.72,0,1.45,0,2.17c1.08,0.37,1.86,1.36,1.86,2.52c0,0.17-0.02,0.33-0.05,0.49c0.22,0,0.44,0,0.66,0
				C13.39,9.82,13.8,9.49,13.82,8.85z"/>
			<path class="st1" d="M12.58,11.98c0.59,0,1.18,0,1.78,0c0.35,0,0.52-0.14,0.53-0.4c0-0.27-0.18-0.41-0.51-0.41
				c-0.56,0-1.11,0-1.67,0c-0.09,0-0.19-0.03-0.28-0.04c0-0.03,0-0.06,0-0.09c0.09-0.02,0.19-0.05,0.28-0.05c0.47,0,0.94,0,1.41,0
				c0.21,0,0.36-0.06,0.43-0.27c0.09-0.29-0.08-0.53-0.41-0.54c-0.26-0.01-0.51,0-0.77,0c0.46-0.27,0.77-0.61,0.85-1.11
				c0.03-0.22,0.06-0.44,0.06-0.66c0.01-1.14,0.01-2.28,0.01-3.43c0-0.47-0.3-0.74-0.8-0.76c-0.09,0-0.22-0.04-0.27-0.1
				C13,3.85,12.73,3.77,12.41,3.79C12.3,3.8,12.18,3.76,12.09,3.7c-0.31-0.21-0.7-0.2-1.01,0.01c-0.11,0.07-0.26,0.13-0.4,0.13
				c-0.5,0-0.82,0.28-0.83,0.76c0,0.15,0,0.31,0,0.39C9.41,4.92,9.01,4.83,8.6,4.82C7.34,4.8,6.07,4.81,4.81,4.81
				c-0.34,0-0.51,0.14-0.51,0.42c0.01,0.26,0.17,0.4,0.5,0.4c0.41,0,0.81,0,1.22,0c0.08,0,0.17,0.03,0.25,0.05c0,0.03,0,0.05,0,0.08
				C6.18,5.76,6.1,5.79,6.01,5.79c-0.57,0-1.13,0-1.7,0c-0.32,0-0.49,0.15-0.5,0.41c0,0.26,0.17,0.4,0.49,0.4c0.52,0,1.04,0,1.57,0
				c0.09,0,0.18,0.04,0.27,0.06c0,0.03-0.01,0.06-0.01,0.09c-0.1,0.01-0.2,0.04-0.3,0.04c-0.58,0-1.17,0-1.75,0
				c-0.37,0-0.54,0.13-0.54,0.41c0,0.27,0.18,0.4,0.55,0.4c0.55,0,1.1,0,1.64,0C5.83,7.6,5.91,7.63,6,7.64c0,0.03,0,0.06,0,0.08
				C5.91,7.74,5.82,7.77,5.73,7.77c-0.47,0.01-0.94,0-1.41,0.01c-0.3,0.01-0.46,0.16-0.46,0.42c0.01,0.24,0.16,0.38,0.45,0.39
				c0.08,0,0.16,0,0.27,0c-0.4,0.71-0.42,0.73-0.43,1.56c-0.02,1.11-0.01,2.22-0.01,3.33c0,0.45,0.31,0.73,0.79,0.74
				c0.09,0,0.22,0.03,0.27,0.1c0.21,0.28,0.5,0.35,0.84,0.32c0.08-0.01,0.19,0.03,0.25,0.08c0.35,0.25,0.74,0.24,1.07-0.02
				c0.08-0.06,0.22-0.1,0.32-0.09c0.51,0.02,0.84-0.26,0.87-0.75c0-0.05,0.01-0.09,0.02-0.16c0.46,0.27,0.97,0.26,1.46,0.27
				c1.19,0.02,2.39,0.01,3.58,0.01c0.32,0,0.49-0.14,0.49-0.41c0-0.27-0.16-0.41-0.48-0.41c-0.41,0-0.81,0-1.22,0
				c-0.09,0-0.18-0.03-0.27-0.05c0-0.03,0-0.06,0.01-0.09c0.1-0.01,0.19-0.04,0.29-0.04c0.57,0,1.13,0,1.7,0
				c0.24,0,0.42-0.08,0.46-0.32c0.05-0.27-0.12-0.48-0.43-0.48c-0.52-0.01-1.04,0-1.56-0.01c-0.1,0-0.21-0.03-0.31-0.04
				c0-0.03,0-0.06,0-0.08C12.39,12,12.48,11.98,12.58,11.98z M12.06,9.82c-0.24,1.25-1.38,2.2-2.76,2.2c-0.4,0-0.78-0.08-1.13-0.23
				c0,0.67,0,1.34,0,2.01c0,0.21-0.07,0.37-0.31,0.4c-0.19,0.03-0.3-0.02-0.3-0.24c0.01-0.5,0-1,0-1.5c0-0.14,0.01-0.29-0.19-0.29
				c-0.2,0-0.19,0.16-0.19,0.3c0,0.56,0.01,1.12-0.01,1.67c0,0.11-0.11,0.27-0.21,0.33c-0.22,0.12-0.42-0.02-0.42-0.26
				c0-0.57,0-1.15,0-1.72c0-0.06,0.02-0.13-0.01-0.18c-0.05-0.08-0.13-0.15-0.2-0.22c-0.07,0.08-0.15,0.15-0.19,0.23
				c-0.03,0.05-0.01,0.13-0.01,0.2c0,0.46,0,0.91,0,1.37c0,0.17,0.05,0.37-0.25,0.37c-0.25,0-0.39-0.13-0.39-0.4
				c0-0.47,0-0.95,0-1.42c0-0.06,0.02-0.13-0.01-0.17c-0.05-0.08-0.13-0.15-0.2-0.22c-0.06,0.07-0.13,0.13-0.18,0.21
				c-0.02,0.04-0.01,0.1-0.01,0.15c0,0.38,0,0.76,0,1.14c0,0.11,0.06,0.28-0.13,0.27c-0.14-0.01-0.28-0.1-0.39-0.19
				c-0.05-0.04-0.04-0.16-0.04-0.24c0-1.07,0-2.13,0-3.2c0-0.25,0.03-0.51,0.06-0.76c0.07-0.49,0.46-0.82,0.98-0.83
				c0.34-0.01,0.68,0,1.02,0C6.94,7.48,8.02,6.64,9.3,6.64c0.33,0,0.65,0.07,0.95,0.17c0-0.72,0-1.45,0-2.17
				c0-0.28,0.11-0.41,0.34-0.43c0.17-0.01,0.26,0.04,0.26,0.22c-0.01,0.5-0.01,1,0,1.5c0,0.14-0.03,0.32,0.2,0.31
				c0.23-0.01,0.19-0.19,0.19-0.32c0-0.54,0.01-1.08,0-1.62c0-0.2,0.08-0.33,0.28-0.37c0.21-0.05,0.36,0.06,0.36,0.27
				c0,0.57,0,1.13,0,1.7c0,0.06,0,0.12,0,0.18c0,0.14,0.04,0.28,0.21,0.25c0.08-0.01,0.18-0.16,0.19-0.25
				c0.02-0.37,0.01-0.74,0.01-1.12c0-0.15,0.01-0.31,0-0.46c-0.01-0.19,0.01-0.34,0.26-0.34c0.22,0,0.38,0.14,0.38,0.37
				c0.01,0.41,0,0.81,0,1.22c0,0.11,0,0.22,0,0.33c0,0.14-0.01,0.3,0.19,0.3c0.22,0.01,0.21-0.17,0.21-0.31c0-0.38,0-0.76,0-1.14
				c0-0.14-0.08-0.33,0.19-0.33c0.21,0,0.37,0.13,0.37,0.35c-0.01,1.3-0.01,2.6-0.06,3.9c-0.02,0.64-0.44,0.97-1.11,0.97
				C12.5,9.82,12.28,9.82,12.06,9.82z"/>
			<path class="st0" d="M9.3,11.59c1.3,0,2.35-1.01,2.35-2.26S10.6,7.07,9.3,7.07S6.95,8.09,6.95,9.33S8,11.59,9.3,11.59z"/>
		</g>
		<path class="st4" d="M10.11,7.03C9.86,6.93,9.58,6.87,9.29,6.87c-1.12,0-2.06,0.76-2.35,1.79c-0.06,0.21-0.1,0.43-0.1,0.66
			c0,1,0.6,1.86,1.46,2.24c0.3,0.13,0.63,0.21,0.98,0.21c1.2,0,2.19-0.86,2.4-2c0.03-0.15,0.05-0.29,0.05-0.45
			C11.74,8.26,11.06,7.37,10.11,7.03z M10.53,10.36h-0.49V8.64h-0.01l-0.59,1.72H9.07L8.5,8.64H8.5v1.72H8V8.12h0.75l0.52,1.46h0.01
			l0.52-1.46h0.74V10.36z"/>
		<ellipse class="st5" cx="9.27" cy="9.32" rx="2.43" ry="2.45"/>
	</g>
</g>
</svg>
