<?xml version="1.0" encoding="utf-8"?>
<!-- Generator: Adobe Illustrator 26.0.1, SVG Export Plug-In . SVG Version: 6.00 Build 0)  -->
<svg version="1.1" id="Layer_1" xmlns="http://www.w3.org/2000/svg" xmlns:xlink="http://www.w3.org/1999/xlink" x="0px" y="0px"
	 viewBox="0 0 18.43 18.43" style="enable-background:new 0 0 18.43 18.43;" xml:space="preserve">
<style type="text/css">
	.st0{fill:#1D71B8;}
	.st1{fill:#FFFFFF;}
	.st2{fill:#C6C6C6;}
	.st3{fill:none;}
	.st4{fill:#FFFFFF;stroke:#1D71B8;stroke-width:0.05;stroke-miterlimit:10;}
	.st5{fill:none;stroke:#1D71B8;stroke-width:0.2;stroke-miterlimit:10;}
	.st6{fill:#1D71B8;stroke:#1D71B8;stroke-width:0.05;stroke-linejoin:round;stroke-miterlimit:10;}
	.st7{fill:#C6C6C6;stroke:#C6C6C6;stroke-width:0.05;stroke-linejoin:round;stroke-miterlimit:10;}
	.st8{fill:#B2B2B2;}
</style>
<g>
	<circle class="st1" cx="9.21" cy="9.21" r="8.91"/>
	<g>
		<path class="st0" d="M9.21,0.3C4.29,0.3,0.3,4.29,0.3,9.21s3.99,8.91,8.91,8.91c4.92,0,8.91-3.99,8.91-8.91S14.13,0.3,9.21,0.3z
			 M13.49,8.1c0,1.45,0,2.89,0,4.34c0,0.57-0.47,1.09-1.08,1.19c-0.11,0.02-0.21,0.02-0.31,0.02h-0.94c-0.94,0-1.88,0-2.81,0
			c-0.08,0-0.14,0.02-0.21,0.07c-0.41,0.31-0.82,0.62-1.23,0.93c-0.41,0.31-0.82,0.62-1.23,0.93c-0.09,0.06-0.18,0.13-0.3,0.13
			c0,0-0.01,0-0.01,0c-0.11,0-0.2-0.03-0.26-0.1c-0.06-0.06-0.1-0.15-0.1-0.26v-1.6c0-0.04,0-0.09,0-0.09c-0.01,0-0.05,0-0.09,0
			c-0.15,0-0.3,0-0.45,0c-0.1,0-0.2,0-0.3,0c-0.61-0.01-1.13-0.45-1.25-1.04C2.9,12.54,2.9,12.47,2.9,12.4v-0.02
			c0-0.57,0-1.14,0-1.71c0-1.4,0-2.85,0-4.27c0-0.7,0.57-1.27,1.28-1.28c0.42,0,4.06,0,6.3,0c0.15-1.35,1.29-2.41,2.68-2.41
			c1.5,0,2.71,1.21,2.71,2.71C15.87,6.81,14.83,7.94,13.49,8.1z"/>
		<polygon class="st0" points="6.45,9.85 7.66,9.85 7.66,9.28 6.45,9.28 6.45,8.76 7.73,8.76 7.73,8.19 5.83,8.19 5.83,10.99 
			7.81,10.99 7.81,10.42 6.45,10.42 		"/>
		<polygon class="st0" points="10.34,10.13 10.33,10.13 9.14,8.19 8.3,8.19 8.3,10.99 8.92,10.99 8.92,9 8.93,9 10.15,10.99 
			10.95,10.99 10.95,8.19 10.34,8.19 		"/>
		<path class="st0" d="M13.16,3.5c-0.95,0-1.71,0.71-1.86,1.62c-0.02,0.1-0.01,0.56,0.02,0.69c0.16,0.75,0.74,1.32,1.5,1.46
			c0.12,0.02,0.56,0.02,0.68,0c0.89-0.16,1.59-0.91,1.59-1.85C15.08,4.37,14.22,3.5,13.16,3.5z M13.64,5.49
			c0.12,0.11,0.24,0.23,0.35,0.35c0.01,0.01,0,0.01,0.01,0.02c0.07,0.09,0.1,0.2,0.04,0.31c-0.05,0.11-0.14,0.16-0.25,0.17
			c-0.11,0-0.18-0.04-0.25-0.1c-0.11-0.1-0.21-0.21-0.31-0.32c-0.05-0.06-0.09-0.06-0.15,0c-0.11,0.11-0.22,0.23-0.34,0.33
			c-0.09,0.08-0.19,0.11-0.31,0.06c-0.11-0.04-0.17-0.12-0.19-0.24c-0.01-0.09,0.03-0.16,0.08-0.22c0.01-0.01,0-0.03,0.01-0.04
			c0.11-0.11,0.22-0.22,0.33-0.33c0.05-0.05,0.05-0.08,0-0.13c-0.04-0.04-0.08-0.08-0.12-0.12c-0.07-0.06-0.13-0.13-0.2-0.2
			c-0.14-0.14-0.15-0.31-0.03-0.44c0.12-0.12,0.3-0.12,0.45,0.02c0.1,0.1,0.2,0.19,0.29,0.3c0.06,0.07,0.1,0.07,0.17,0
			c0.1-0.11,0.2-0.2,0.3-0.3c0.14-0.13,0.32-0.14,0.44-0.02c0.12,0.12,0.12,0.3-0.02,0.44c-0.07,0.07-0.13,0.13-0.2,0.2
			c-0.04,0.04-0.08,0.08-0.12,0.12C13.59,5.41,13.59,5.44,13.64,5.49z"/>
	</g>
</g>
</svg>
