<?xml version="1.0" encoding="utf-8"?>
<!-- Generator: Adobe Illustrator 26.0.1, SVG Export Plug-In . SVG Version: 6.00 Build 0)  -->
<svg version="1.1" id="Layer_1" xmlns="http://www.w3.org/2000/svg" xmlns:xlink="http://www.w3.org/1999/xlink" x="0px" y="0px"
	 viewBox="0 0 18.43 18.43" style="enable-background:new 0 0 18.43 18.43;" xml:space="preserve">
<style type="text/css">
	.st0{fill:#1D71B8;}
	.st1{fill:#FFFFFF;}
	.st2{fill:#C6C6C6;}
	.st3{fill:none;}
	.st4{fill:#FFFFFF;stroke:#1D71B8;stroke-width:0.05;stroke-miterlimit:10;}
	.st5{fill:none;stroke:#1D71B8;stroke-width:0.2;stroke-miterlimit:10;}
	.st6{fill:#1D71B8;stroke:#1D71B8;stroke-width:0.05;stroke-linejoin:round;stroke-miterlimit:10;}
	.st7{fill:#C6C6C6;stroke:#C6C6C6;stroke-width:0.05;stroke-linejoin:round;stroke-miterlimit:10;}
	.st8{fill:#B2B2B2;}
</style>
<g>
	<g>
		<path class="st0" d="M9.21,1.8c4.09,0,7.41,3.33,7.41,7.41s-3.33,7.41-7.41,7.41c-4.09,0-7.41-3.33-7.41-7.41S5.13,1.8,9.21,1.8
			 M9.21,0.3C4.29,0.3,0.3,4.29,0.3,9.21c0,4.92,3.99,8.91,8.91,8.91c4.92,0,8.91-3.99,8.91-8.91C18.12,4.29,14.13,0.3,9.21,0.3
			L9.21,0.3z"/>
	</g>
	<g>
		<g>
			<path class="st0" d="M8.6,5.56c0.12,0.17,0.29,0.29,0.48,0.37c0.41,0.18,0.84,0.24,1.28,0.26c0.41,0.02,0.83,0.01,1.23,0.05
				c0.53,0.05,1.02,0.22,1.43,0.57c0.4,0.34,0.65,0.78,0.68,1.32c0,0.02,0.01,0.04,0.02,0.06c0,0,0,0,0,0
				c0.06,0.02,0.12,0.03,0.18,0.05c0,0.75,0,1.51,0,2.28c-0.25,0-0.5,0-0.75,0c0-0.76,0-1.52,0-2.3c0.14,0,0.28,0,0.42,0
				c0.05,0,0.09-0.02,0.14-0.03l0,0c0,0,0,0,0,0c-0.02-0.02-0.05-0.04-0.06-0.07c-0.14-0.39-0.42-0.64-0.78-0.82
				c-0.39-0.2-0.82-0.3-1.25-0.35c-0.52-0.06-1.04-0.1-1.55-0.19C9.77,6.71,9.47,6.58,9.16,6.47c-0.11-0.04-0.21-0.1-0.3-0.17
				c-0.48-0.33-0.6-0.71-0.38-1.25c-0.52-0.48-0.71-1.03-0.4-1.74c0,0.13-0.01,0.24,0,0.34C8.12,4,8.31,4.25,8.59,4.45
				c0.38,0.26,0.81,0.39,1.25,0.44c0.42,0.05,0.84,0.07,1.26,0.07c0.65,0.01,1.29,0.09,1.87,0.4c0.89,0.48,1.36,1.24,1.48,2.23
				c0.01,0.04,0,0.09-0.02,0.14c0-0.01-0.01-0.03-0.01-0.04c-0.18-0.6-0.59-0.99-1.13-1.27c-0.63-0.32-1.3-0.42-2-0.47
				c-0.81-0.06-1.6-0.21-2.33-0.58C8.81,5.29,8.66,5.19,8.51,5.1C8.46,5.27,8.51,5.42,8.6,5.56z M14.21,10.53c0-0.77,0-1.53,0-2.3
				c0.25,0,0.49,0,0.75,0c0,0.77,0,1.53,0,2.3C14.71,10.53,14.47,10.53,14.21,10.53z"/>
			<path class="st0" d="M12.87,8.22c-0.05,0-0.1,0-0.15,0H3.46c0,0.77,0,1.54,0,2.31c0.05,0,0.1,0,0.15,0c1.79,0,3.58,0,5.38,0
				c0,0,0,0,0,0h2.47c0.47,0,0.93,0,1.4,0C12.87,9.76,12.87,9,12.87,8.22z"/>
			<polygon class="st0" points="13.73,8.19 13.73,8.19 13.73,8.19 			"/>
			<path class="st0" d="M8.96,5.37c0.73,0.37,1.52,0.52,2.33,0.58c0.69,0.05,1.37,0.16,2,0.47c0.54,0.27,0.95,0.67,1.13,1.27
				c0,0.01,0.01,0.03,0.01,0.04c0.02-0.05,0.02-0.09,0.02-0.14c-0.12-0.99-0.59-1.76-1.48-2.23c-0.58-0.31-1.22-0.39-1.87-0.4
				c-0.42-0.01-0.84-0.03-1.26-0.07C9.39,4.84,8.96,4.71,8.59,4.45C8.31,4.25,8.12,4,8.07,3.66c-0.01-0.1,0-0.21,0-0.34
				c-0.3,0.7-0.11,1.26,0.4,1.74C8.26,5.59,8.38,5.98,8.86,6.3c0.09,0.06,0.19,0.13,0.3,0.17c0.31,0.11,0.62,0.23,0.93,0.29
				c0.51,0.09,1.03,0.13,1.55,0.19c0.43,0.05,0.86,0.15,1.25,0.35c0.35,0.18,0.64,0.43,0.78,0.82c0.01,0.03,0.04,0.05,0.06,0.07
				c-0.01-0.02-0.02-0.04-0.02-0.06c-0.03-0.54-0.28-0.97-0.68-1.32c-0.41-0.35-0.9-0.52-1.43-0.57c-0.41-0.04-0.82-0.03-1.23-0.05
				C9.92,6.16,9.49,6.11,9.08,5.93C8.89,5.84,8.72,5.73,8.6,5.56C8.51,5.42,8.46,5.27,8.51,5.1C8.66,5.19,8.81,5.29,8.96,5.37z"/>
			<polygon class="st0" points="13.73,8.19 13.73,8.19 13.73,8.19 			"/>
			<path class="st0" d="M13.73,8.19c-0.05,0.01-0.09,0.03-0.14,0.03c-0.14,0-0.28,0-0.42,0c0,0.78,0,1.54,0,2.3c0.25,0,0.5,0,0.75,0
				c0-0.77,0-1.53,0-2.28C13.84,8.22,13.79,8.21,13.73,8.19L13.73,8.19L13.73,8.19z"/>
			<polygon class="st0" points="13.73,8.19 13.73,8.19 13.73,8.19 13.73,8.19 13.73,8.19 			"/>
			<path class="st0" d="M14.21,8.23c0,0.77,0,1.53,0,2.3c0.25,0,0.5,0,0.75,0c0-0.77,0-1.53,0-2.3C14.71,8.23,14.46,8.23,14.21,8.23
				z"/>
		</g>
		<g>
			<path class="st0" d="M9.22,0.42c-4.86,0-8.79,3.93-8.8,8.79c0,4.86,3.93,8.8,8.79,8.8c4.86,0,8.8-3.93,8.8-8.79
				C18.01,4.36,14.08,0.42,9.22,0.42z M9.21,16.51c-4.03,0-7.3-3.27-7.3-7.3c0-4.03,3.27-7.3,7.3-7.3c4.03,0,7.3,3.27,7.3,7.3
				C16.51,13.24,13.24,16.51,9.21,16.51z"/>
			<polygon class="st0" points="14.39,7.82 14.38,7.81 14.39,7.82 			"/>
			<polygon class="st0" points="14.39,7.82 14.39,7.82 14.39,7.82 			"/>
		</g>
	</g>
</g>
</svg>
