<?xml version="1.0" encoding="utf-8"?>
<!-- Generator: Adobe Illustrator 26.0.1, SVG Export Plug-In . SVG Version: 6.00 Build 0)  -->
<svg version="1.1" id="Layer_1" xmlns="http://www.w3.org/2000/svg" xmlns:xlink="http://www.w3.org/1999/xlink" x="0px" y="0px"
	 viewBox="0 0 18.43 18.43" style="enable-background:new 0 0 18.43 18.43;" xml:space="preserve">
<style type="text/css">
	.st0{fill:#1D71B8;}
	.st1{fill:#FFFFFF;}
	.st2{fill:#C6C6C6;}
	.st3{fill:none;}
	.st4{fill:#FFFFFF;stroke:#1D71B8;stroke-width:0.05;stroke-miterlimit:10;}
	.st5{fill:none;stroke:#1D71B8;stroke-width:0.2;stroke-miterlimit:10;}
	.st6{fill:#1D71B8;stroke:#1D71B8;stroke-width:0.05;stroke-linejoin:round;stroke-miterlimit:10;}
	.st7{fill:#C6C6C6;stroke:#C6C6C6;stroke-width:0.05;stroke-linejoin:round;stroke-miterlimit:10;}
	.st8{fill:#B2B2B2;}
</style>
<g>
	<circle class="st2" cx="9.21" cy="9.21" r="8.91"/>
	<path class="st1" d="M6.51,15.11c0.05,0.05,0.12,0.07,0.21,0.07c0,0,0,0,0.01,0c0.1,0,0.18-0.06,0.26-0.11
		c0.41-0.31,0.82-0.62,1.23-0.93c0.41-0.31,0.82-0.62,1.23-0.93c0.08-0.06,0.16-0.09,0.25-0.09c0.94,0,1.88,0,2.81,0l0.94,0
		c0.09,0,0.19,0,0.3-0.02c0.57-0.09,1.01-0.58,1.01-1.11c0-1.53,0-3.06,0-4.59l0-1.53c0-0.14-0.03-0.28-0.09-0.41
		C14.43,5,14.05,4.76,13.54,4.75c-0.55,0-7.44-0.01-8.03,0c-0.66,0.01-1.2,0.54-1.19,1.2c0.01,1.42,0,2.87,0,4.27
		c0,0.57,0,1.14,0,1.71v0.02c0,0.07,0,0.13,0.01,0.2c0.11,0.55,0.6,0.96,1.17,0.97c0.17,0.01,0.36,0,0.53,0c0.08,0,0.15,0,0.23,0
		c0.16,0,0.18,0.02,0.18,0.18v1.6C6.44,14.99,6.46,15.06,6.51,15.11z M9.44,7.54h0.84l1.19,1.95h0.01V7.54h0.62v2.8h-0.81
		l-1.22-1.99h-0.01v1.99H9.44V7.54z M6.97,7.54h1.9v0.57H7.59v0.52H8.8V9.2H7.59v0.57h1.36v0.57H6.97V7.54z"/>
</g>
</svg>
