<?xml version="1.0" encoding="utf-8"?>
<!-- Generator: Adobe Illustrator 26.0.1, SVG Export Plug-In . SVG Version: 6.00 Build 0)  -->
<svg version="1.1" id="Layer_1" xmlns="http://www.w3.org/2000/svg" xmlns:xlink="http://www.w3.org/1999/xlink" x="0px" y="0px"
	 viewBox="0 0 18.43 18.43" style="enable-background:new 0 0 18.43 18.43;" xml:space="preserve">
<style type="text/css">
	.st0{fill:#1D71B8;}
	.st1{fill:#FFFFFF;}
	.st2{fill:#C6C6C6;}
	.st3{fill:none;}
	.st4{fill:#FFFFFF;stroke:#1D71B8;stroke-width:0.05;stroke-miterlimit:10;}
	.st5{fill:none;stroke:#1D71B8;stroke-width:0.2;stroke-miterlimit:10;}
	.st6{fill:#1D71B8;stroke:#1D71B8;stroke-width:0.05;stroke-linejoin:round;stroke-miterlimit:10;}
	.st7{fill:#C6C6C6;stroke:#C6C6C6;stroke-width:0.05;stroke-linejoin:round;stroke-miterlimit:10;}
	.st8{fill:#B2B2B2;}
</style>
<g>
	<g>
		<path class="st0" d="M9.21,1.8c4.09,0,7.41,3.33,7.41,7.41s-3.33,7.41-7.41,7.41S1.8,13.3,1.8,9.21S5.13,1.8,9.21,1.8 M9.21,0.3
			C4.29,0.3,0.3,4.29,0.3,9.21c0,4.92,3.99,8.91,8.91,8.91s8.91-3.99,8.91-8.91C18.12,4.29,14.13,0.3,9.21,0.3L9.21,0.3z"/>
	</g>
	<g>
		<g id="_x33_WNzoU.tif_00000024680513331606205050000008327246747063242388_">
			<g>
				<path class="st0" d="M8.53,0.32c0.46,0,0.93,0,1.39,0c0.2,0.03,0.4,0.05,0.6,0.08c2.23,0.35,4.09,1.38,5.52,3.11
					c1.69,2.03,2.35,4.39,1.98,7.01c-0.3,2.1-1.28,3.86-2.85,5.28c-1.54,1.4-3.36,2.16-5.44,2.29c-1.49,0.09-2.92-0.17-4.26-0.83
					c-2.55-1.24-4.18-3.24-4.9-5.98C0.45,10.83,0.4,10.36,0.34,9.9c0-0.46,0-0.93,0-1.39c0.01-0.04,0.02-0.08,0.02-0.12
					C0.47,7.18,0.81,6.04,1.4,4.98c1.3-2.32,3.23-3.8,5.81-4.45C7.65,0.43,8.09,0.39,8.53,0.32z M14.77,13.56
					c0.08,0.08,0.14,0.06,0.2-0.02c0.08-0.12,0.18-0.23,0.25-0.35c0.97-1.49,1.36-3.11,1.14-4.87c-0.24-1.91-1.12-3.49-2.61-4.7
					c-1.44-1.17-3.11-1.7-4.97-1.59C7.38,2.1,6.1,2.57,4.96,3.4c-0.2,0.15-0.2,0.15-0.02,0.33c1.3,1.3,2.59,2.59,3.89,3.89
					C9.12,7.91,14.34,13.13,14.77,13.56z M8.92,10.1C8.9,10.07,7.09,8.27,7.05,8.23c-1.1-1.11-2.21-2.21-3.31-3.31
					C3.57,4.74,3.56,4.74,3.43,4.93c-1.12,1.54-1.6,3.26-1.35,5.14c0.38,2.8,1.92,4.75,4.52,5.84c1.16,0.49,2.38,0.6,3.63,0.42
					c1.21-0.17,2.3-0.62,3.29-1.35c0.12-0.09,0.15-0.16,0.03-0.27c-0.14-0.12-0.27-0.26-0.39-0.39C13.07,14.24,9.18,10.36,8.92,10.1
					z"/>
			</g>
		</g>
		<g>
			<path class="st0" d="M8.62,5.83C8.74,6.01,8.91,6.12,9.1,6.2c0.41,0.18,0.84,0.24,1.28,0.26c0.41,0.02,0.83,0.01,1.23,0.05
				c0.53,0.05,1.02,0.22,1.43,0.57c0.4,0.34,0.65,0.78,0.68,1.32c0,0.02,0.01,0.04,0.02,0.06c0,0,0,0,0,0
				c0.06,0.02,0.12,0.03,0.18,0.05c0,0.75,0,1.51,0,2.28c-0.25,0-0.5,0-0.75,0c0-0.76,0-1.52,0-2.3c0.14,0,0.28,0,0.42,0
				c0.05,0,0.09-0.02,0.14-0.03l0,0c0,0,0,0,0,0c-0.02-0.02-0.05-0.04-0.06-0.07c-0.14-0.39-0.42-0.64-0.78-0.82
				c-0.39-0.2-0.82-0.3-1.25-0.35c-0.52-0.06-1.04-0.1-1.55-0.19C9.79,6.98,9.48,6.86,9.17,6.75c-0.11-0.04-0.21-0.1-0.3-0.17
				c-0.48-0.33-0.6-0.71-0.38-1.25C7.97,4.86,7.78,4.3,8.09,3.6c0,0.13-0.01,0.24,0,0.34c0.05,0.34,0.24,0.6,0.52,0.79
				c0.38,0.26,0.81,0.39,1.25,0.44c0.42,0.05,0.84,0.07,1.26,0.07c0.65,0.01,1.29,0.09,1.87,0.4c0.89,0.48,1.36,1.24,1.48,2.23
				c0.01,0.04,0,0.09-0.02,0.14c0-0.01-0.01-0.03-0.01-0.04c-0.18-0.6-0.59-0.99-1.13-1.27c-0.63-0.32-1.3-0.42-2-0.47
				c-0.81-0.06-1.6-0.21-2.33-0.58c-0.16-0.08-0.3-0.18-0.46-0.27C8.47,5.55,8.52,5.69,8.62,5.83z M14.23,10.8c0-0.77,0-1.53,0-2.3
				c0.25,0,0.49,0,0.75,0c0,0.77,0,1.53,0,2.3C14.73,10.8,14.48,10.8,14.23,10.8z"/>
			<path class="st0" d="M12.88,8.5c-0.05,0-0.1,0-0.15,0H3.48c0,0.77,0,1.54,0,2.31c0.05,0,0.1,0,0.15,0c1.79,0,3.58,0,5.38,0
				c0,0,0,0,0,0h2.47c0.47,0,0.93,0,1.4,0C12.88,10.04,12.88,9.28,12.88,8.5z"/>
			<polygon class="st0" points="13.74,8.47 13.74,8.47 13.74,8.47 			"/>
			<path class="st0" d="M8.98,5.65c0.73,0.37,1.52,0.52,2.33,0.58c0.69,0.05,1.37,0.16,2,0.47c0.54,0.27,0.95,0.67,1.13,1.27
				c0,0.01,0.01,0.03,0.01,0.04c0.02-0.05,0.02-0.09,0.02-0.14c-0.12-0.99-0.59-1.76-1.48-2.23c-0.58-0.31-1.22-0.39-1.87-0.4
				c-0.42-0.01-0.84-0.03-1.26-0.07C9.41,5.12,8.98,4.99,8.6,4.72C8.33,4.53,8.13,4.28,8.09,3.94c-0.01-0.1,0-0.21,0-0.34
				c-0.3,0.7-0.11,1.26,0.4,1.74c-0.21,0.54-0.1,0.92,0.38,1.25c0.09,0.06,0.19,0.13,0.3,0.17c0.31,0.11,0.62,0.23,0.93,0.29
				c0.51,0.09,1.03,0.13,1.55,0.19c0.43,0.05,0.86,0.15,1.25,0.35c0.35,0.18,0.64,0.43,0.78,0.82c0.01,0.03,0.04,0.05,0.06,0.07
				c-0.01-0.02-0.02-0.04-0.02-0.06c-0.03-0.54-0.28-0.97-0.68-1.32c-0.41-0.35-0.9-0.52-1.43-0.57c-0.41-0.04-0.82-0.03-1.23-0.05
				C9.94,6.44,9.5,6.38,9.1,6.2C8.91,6.12,8.74,6.01,8.62,5.83C8.52,5.69,8.47,5.55,8.52,5.37C8.68,5.47,8.82,5.57,8.98,5.65z"/>
			<polygon class="st0" points="13.74,8.47 13.74,8.47 13.74,8.47 			"/>
			<path class="st0" d="M13.74,8.47C13.7,8.48,13.65,8.5,13.6,8.5c-0.14,0-0.28,0-0.42,0c0,0.78,0,1.54,0,2.3c0.25,0,0.5,0,0.75,0
				c0-0.77,0-1.53,0-2.28C13.86,8.5,13.8,8.48,13.74,8.47L13.74,8.47L13.74,8.47z"/>
			<polygon class="st0" points="13.74,8.47 13.74,8.47 13.74,8.47 13.74,8.47 13.74,8.47 			"/>
			<path class="st0" d="M14.23,8.51c0,0.77,0,1.53,0,2.3c0.25,0,0.5,0,0.75,0c0-0.77,0-1.53,0-2.3C14.72,8.51,14.48,8.51,14.23,8.51
				z"/>
		</g>
	</g>
</g>
</svg>
