<?xml version="1.0" encoding="utf-8"?>
<!-- Generator: Adobe Illustrator 26.0.1, SVG Export Plug-In . SVG Version: 6.00 Build 0)  -->
<svg version="1.1" id="Layer_1" xmlns="http://www.w3.org/2000/svg" xmlns:xlink="http://www.w3.org/1999/xlink" x="0px" y="0px"
	 viewBox="0 0 18.43 18.43" style="enable-background:new 0 0 18.43 18.43;" xml:space="preserve">
<style type="text/css">
	.st0{fill:#1D71B8;}
	.st1{fill:#FFFFFF;}
	.st2{fill:#C6C6C6;}
	.st3{fill:none;}
	.st4{fill:#FFFFFF;stroke:#1D71B8;stroke-width:0.05;stroke-miterlimit:10;}
	.st5{fill:none;stroke:#1D71B8;stroke-width:0.2;stroke-miterlimit:10;}
	.st6{fill:#1D71B8;stroke:#1D71B8;stroke-width:0.05;stroke-linejoin:round;stroke-miterlimit:10;}
	.st7{fill:#C6C6C6;stroke:#C6C6C6;stroke-width:0.05;stroke-linejoin:round;stroke-miterlimit:10;}
	.st8{fill:#B2B2B2;}
</style>
<g>
	<g>
		<path class="st0" d="M9.21,1.8c4.09,0,7.41,3.33,7.41,7.41s-3.33,7.41-7.41,7.41S1.8,13.3,1.8,9.21S5.13,1.8,9.21,1.8 M9.21,0.3
			C4.29,0.3,0.3,4.29,0.3,9.21s3.99,8.91,8.91,8.91c4.92,0,8.91-3.99,8.91-8.91S14.13,0.3,9.21,0.3L9.21,0.3z"/>
	</g>
	<g>
		<path class="st0" d="M11.73,8.34c-0.09-0.62-0.23-1.22-0.54-1.77c-0.28-0.49-0.66-0.84-1.23-0.96C9.89,5.6,9.8,5.6,9.73,5.63
			c-0.34,0.13-0.68,0.13-1.02,0C8.66,5.6,8.58,5.59,8.52,5.61C8.31,5.69,8.08,5.75,7.89,5.88C7.46,6.16,7.22,6.6,7.04,7.07
			C6.75,7.85,6.67,8.68,6.59,9.5c-0.02,0.18,0.12,0.32,0.3,0.33c0.2,0.01,0.32-0.09,0.35-0.29C7.32,9.02,7.38,8.51,7.48,8
			c0.07-0.36,0.24-0.7,0.48-1.03c0,0.09,0,0.15,0,0.2C7.93,7.99,7.89,8.8,7.87,9.61c-0.05,1.54,0.21,3.05,0.37,4.57
			c0.03,0.24,0.23,0.38,0.47,0.37c0.29-0.02,0.46-0.23,0.45-0.56c-0.07-1.28-0.18-2.56-0.09-3.84c0.01-0.11,0.01-0.21,0.02-0.32
			c0.11,0,0.2,0,0.31,0c0.01,0.68,0.04,1.36,0.03,2.03C9.4,12.59,9.34,13.3,9.3,14.02c-0.01,0.18,0.04,0.33,0.19,0.44
			c0.31,0.23,0.69,0.04,0.74-0.35c0.05-0.4,0.09-0.81,0.14-1.21c0.16-1.27,0.27-2.55,0.21-3.83c-0.03-0.68-0.06-1.37-0.09-2.05
			c0.28,0.34,0.45,0.73,0.52,1.15c0.08,0.45,0.13,0.9,0.19,1.35c0.03,0.23,0.17,0.34,0.38,0.31c0.2-0.02,0.3-0.17,0.27-0.39
			C11.82,9.07,11.78,8.7,11.73,8.34z"/>
		<path class="st0" d="M9.2,5.4c0.54,0.01,0.99-0.41,1.01-0.95c0.02-0.55-0.41-1-0.96-1.01C8.7,3.43,8.27,3.86,8.25,4.41
			C8.24,4.93,8.67,5.39,9.2,5.4z"/>
	</g>
</g>
</svg>
