<?xml version="1.0" encoding="utf-8"?>
<!-- Generator: Adobe Illustrator 26.0.1, SVG Export Plug-In . SVG Version: 6.00 Build 0)  -->
<svg version="1.1" id="Layer_1" xmlns="http://www.w3.org/2000/svg" xmlns:xlink="http://www.w3.org/1999/xlink" x="0px" y="0px"
	 viewBox="0 0 18.43 18.43" style="enable-background:new 0 0 18.43 18.43;" xml:space="preserve">
<style type="text/css">
	.st0{fill:#1D71B8;}
	.st1{fill:#FFFFFF;}
	.st2{fill:#C6C6C6;}
	.st3{fill:none;}
	.st4{fill:#FFFFFF;stroke:#1D71B8;stroke-width:0.05;stroke-miterlimit:10;}
	.st5{fill:none;stroke:#1D71B8;stroke-width:0.2;stroke-miterlimit:10;}
	.st6{fill:#1D71B8;stroke:#1D71B8;stroke-width:0.05;stroke-linejoin:round;stroke-miterlimit:10;}
	.st7{fill:#C6C6C6;stroke:#C6C6C6;stroke-width:0.05;stroke-linejoin:round;stroke-miterlimit:10;}
	.st8{fill:#B2B2B2;}
</style>
<g>
	<circle class="st0" cx="9.21" cy="9.21" r="8.91"/>
	<g>
		<g>
			<path class="st1" d="M14.33,8.77c-0.4-0.61-0.86-1.17-1.21-1.8c-0.14-0.2-0.26-0.33-0.37-0.44c-0.37-0.27-0.62-0.25-1.09-0.27
				H9.2H6.75C6.2,6.3,5.94,6.31,5.66,6.53C5.54,6.64,5.42,6.77,5.28,6.97c-0.35,0.63-0.81,1.2-1.21,1.8
				C3.83,9.14,3.92,9.65,4.24,9.88c0.36,0.26,0.83,0.22,1.14-0.12C5.49,9.64,5.57,9.5,5.67,9.37C5.72,9.3,5.76,9.19,5.86,9.21
				c0.1,0.02,0.08,0.14,0.09,0.22c0.07,0.67,0.13,1.33,0.2,2c0.09,0.89,0.18,1.78,0.27,2.68c0.03,0.28,0.09,0.5,0.46,0.49
				c0.77-0.01,1.55,0,2.32,0s1.55,0,2.32,0c0.36,0,0.43-0.22,0.46-0.49c0.09-0.89,0.18-1.78,0.27-2.68c0.07-0.67,0.13-1.33,0.2-2
				c0.01-0.08-0.01-0.2,0.09-0.22c0.1-0.02,0.14,0.09,0.19,0.16c0.1,0.13,0.18,0.27,0.29,0.39c0.31,0.34,0.78,0.39,1.14,0.12
				C14.48,9.65,14.58,9.14,14.33,8.77z"/>
			<g>
				<path class="st1" d="M7.68,3.23c-0.84,0-1.53,0.68-1.53,1.53s0.68,1.53,1.53,1.53c0.84,0,1.53-0.68,1.53-1.53
					S8.52,3.23,7.68,3.23z"/>
				<path class="st1" d="M10.73,3.23c-0.84,0-1.53,0.68-1.53,1.53s0.68,1.53,1.53,1.53c0.84,0,1.53-0.68,1.53-1.53
					S11.57,3.23,10.73,3.23z"/>
			</g>
		</g>
		<path class="st6" d="M10.87,12.27c-0.06,0.04-0.12,0.06-0.17,0.06c-0.09,0-0.17-0.05-0.23-0.13c0,0,0,0,0,0
			c-0.14-0.18-0.26-0.37-0.4-0.56c-0.05,0.01-0.09,0.01-0.14,0.02c0.04,0.78,0.09,1.55,0.13,2.33c0,0.06,0.03,0.12,0.03,0.18
			c0,0.09,0.01,0.19,0.01,0.29c-0.01,0.15-0.05,0.29-0.27,0.31c-0.02,0-0.04,0-0.05,0c-0.18,0-0.23-0.11-0.26-0.25
			c-0.02-0.09-0.02-0.2-0.03-0.29c-0.03-0.34-0.06-0.67-0.1-1.01C9.39,13.11,9.35,13,9.21,13c0,0,0,0,0,0
			c-0.14,0-0.18,0.1-0.19,0.21c-0.04,0.37-0.07,0.74-0.11,1.1c-0.01,0.07-0.03,0.13-0.04,0.19c-0.04,0.14-0.1,0.26-0.27,0.26
			c-0.01,0-0.02,0-0.03,0c-0.2-0.01-0.23-0.17-0.24-0.33c0-0.05-0.02-0.1-0.01-0.14c0.04-0.72,0.1-1.44,0.15-2.17
			c0.01-0.14,0.11-0.35-0.07-0.41c-0.02-0.01-0.03-0.01-0.05-0.01c-0.11,0-0.16,0.18-0.24,0.26c-0.06,0.07-0.11,0.15-0.16,0.22
			c0,0-0.01,0-0.01,0c-0.07,0.08-0.15,0.14-0.24,0.14c-0.05,0-0.11-0.01-0.16-0.05c-0.16-0.1-0.17-0.27-0.08-0.41
			c0.12-0.19,0.26-0.38,0.38-0.57c0.12-0.18,0.24-0.36,0.36-0.54c0.11-0.15,0.28-0.18,0.45-0.18c0.36,0,0.71-0.01,1.07-0.01
			c0.03,0,0.06,0,0.09,0c0.16,0,0.31,0.05,0.4,0.19c0.12,0.17,0.24,0.35,0.35,0.52c0.13,0.2,0.27,0.39,0.4,0.59
			C11.06,12.03,11.03,12.17,10.87,12.27z"/>
		<path class="st6" d="M8.49,9.49c0-0.4,0.32-0.72,0.71-0.72c0,0,0.01,0,0.01,0c0.37,0.01,0.71,0.35,0.7,0.71
			c0,0.35-0.36,0.71-0.7,0.71c-0.01,0-0.01,0-0.02,0C8.81,10.18,8.49,9.87,8.49,9.49z"/>
	</g>
</g>
</svg>
