<?xml version="1.0" encoding="utf-8"?>
<!-- Generator: Adobe Illustrator 26.0.1, SVG Export Plug-In . SVG Version: 6.00 Build 0)  -->
<svg version="1.1" id="Layer_1" xmlns="http://www.w3.org/2000/svg" xmlns:xlink="http://www.w3.org/1999/xlink" x="0px" y="0px"
	 viewBox="0 0 18.43 18.43" style="enable-background:new 0 0 18.43 18.43;" xml:space="preserve">
<style type="text/css">
	.st0{fill:#1D71B8;}
	.st1{fill:#FFFFFF;}
	.st2{fill:#C6C6C6;}
	.st3{fill:none;}
	.st4{fill:#FFFFFF;stroke:#1D71B8;stroke-width:0.05;stroke-miterlimit:10;}
	.st5{fill:none;stroke:#1D71B8;stroke-width:0.2;stroke-miterlimit:10;}
	.st6{fill:#1D71B8;stroke:#1D71B8;stroke-width:0.05;stroke-linejoin:round;stroke-miterlimit:10;}
	.st7{fill:#C6C6C6;stroke:#C6C6C6;stroke-width:0.05;stroke-linejoin:round;stroke-miterlimit:10;}
	.st8{fill:#B2B2B2;}
</style>
<g>
	<circle class="st0" cx="9.21" cy="9.21" r="8.91"/>
	<g>
		<path class="st1" d="M14.31,8.56C13.35,7.6,12.4,6.65,11.45,5.7l-1.9-1.91c-0.22-0.22-0.44-0.21-0.65,0
			C7.31,5.38,5.72,6.96,4.12,8.56C4.1,8.58,4.07,8.6,4.06,8.62c-0.1,0.12-0.13,0.27-0.06,0.42C4.05,9.19,4.17,9.28,4.33,9.3
			c0.05,0.01,0.09,0,0.13,0H5.1v4.38c0,0.32,0.15,0.47,0.47,0.47h7.29c0.32,0,0.47-0.15,0.47-0.47V9.3l0.11,0c0.18,0,0.36,0,0.55,0
			c0.09,0.01,0.34,0,0.45-0.26C14.54,8.78,14.36,8.61,14.31,8.56z"/>
		<path class="st0" d="M8.54,9.93l0.11,0.11c0,0-0.01,0.01-0.01,0.01c-0.28,0.28-0.56,0.56-0.84,0.84
			c-0.15,0.15-0.16,0.37-0.04,0.55c0.09,0.13,0.25,0.19,0.4,0.14c0.11-0.03,0.19-0.1,0.23-0.14c0.23-0.23,0.47-0.47,0.7-0.7
			l0.12-0.12l0.23,0.23c0.21,0.21,0.41,0.41,0.62,0.62c0.08,0.08,0.18,0.12,0.28,0.12c0.1,0,0.2-0.04,0.28-0.13
			c0.16-0.16,0.16-0.39,0.01-0.56c-0.02-0.02-0.04-0.04-0.06-0.06l-0.78-0.81l0.25-0.25c0.2-0.2,0.4-0.4,0.6-0.6
			c0.17-0.17,0.17-0.4,0-0.57c-0.16-0.17-0.39-0.17-0.57,0C9.85,8.83,9.64,9.04,9.43,9.25C9.36,9.32,9.29,9.39,9.21,9.47
			c0,0,0,0,0,0L8.38,8.63C8.21,8.47,8,8.45,7.83,8.59C7.73,8.67,7.68,8.78,7.67,8.88C7.67,8.99,7.71,9.1,7.81,9.2
			C8.05,9.44,8.29,9.68,8.54,9.93z"/>
	</g>
</g>
</svg>
