<?xml version="1.0" encoding="utf-8"?>
<!-- Generator: Adobe Illustrator 26.0.1, SVG Export Plug-In . SVG Version: 6.00 Build 0)  -->
<svg version="1.1" id="Layer_1" xmlns="http://www.w3.org/2000/svg" xmlns:xlink="http://www.w3.org/1999/xlink" x="0px" y="0px"
	 viewBox="0 0 18.43 18.43" style="enable-background:new 0 0 18.43 18.43;" xml:space="preserve">
<style type="text/css">
	.st0{fill:#1D71B8;}
	.st1{fill:#FFFFFF;}
	.st2{fill:#C6C6C6;}
	.st3{fill:none;}
	.st4{fill:#FFFFFF;stroke:#1D71B8;stroke-width:0.05;stroke-miterlimit:10;}
	.st5{fill:none;stroke:#1D71B8;stroke-width:0.2;stroke-miterlimit:10;}
	.st6{fill:#1D71B8;stroke:#1D71B8;stroke-width:0.05;stroke-linejoin:round;stroke-miterlimit:10;}
	.st7{fill:#C6C6C6;stroke:#C6C6C6;stroke-width:0.05;stroke-linejoin:round;stroke-miterlimit:10;}
	.st8{fill:#B2B2B2;}
</style>
<g>
	<g>
		<path class="st0" d="M9.21,1.8c4.09,0,7.41,3.33,7.41,7.41s-3.33,7.41-7.41,7.41S1.8,13.3,1.8,9.21S5.13,1.8,9.21,1.8 M9.21,0.3
			C4.29,0.3,0.3,4.29,0.3,9.21c0,4.92,3.99,8.91,8.91,8.91s8.91-3.99,8.91-8.91C18.12,4.29,14.13,0.3,9.21,0.3L9.21,0.3z"/>
	</g>
	<g>
		<path class="st0" d="M12.15,8.64c-0.07-0.6-0.17-1.19-0.45-1.74c-0.34-0.66-0.88-1.03-1.62-1.09c-0.08-0.01-0.16,0.02-0.23,0.05
			c-0.4,0.2-0.8,0.22-1.2,0.02C8.52,5.82,8.4,5.79,8.27,5.82c-0.2,0.05-0.41,0.09-0.6,0.17C7.09,6.24,6.78,6.73,6.58,7.3
			C6.31,8.07,6.28,8.88,6.2,9.68c-0.02,0.21,0.1,0.35,0.29,0.36c0.2,0.02,0.33-0.1,0.36-0.32C6.88,9.49,6.9,9.24,6.94,9
			c0.04-0.23,0.1-0.47,0.16-0.7c0.01,0,0.03,0.01,0.04,0.01c0,0.03,0,0.07,0,0.1C7.07,9.18,7.1,9.94,7.19,10.7
			c0.09,0.76,0.31,1.48,0.51,2.21c0.13,0.49,0.27,0.97,0.4,1.45c0.08,0.28,0.31,0.43,0.55,0.4c0.25-0.04,0.39-0.22,0.36-0.53
			c-0.08-0.92-0.05-1.84-0.03-2.75c0-0.05,0.01-0.09,0.01-0.13c0.16,0,0.3,0,0.44,0c0,0.03,0.01,0.06,0.01,0.08
			c0.01,0.64,0.02,1.28,0.02,1.92c0,0.31-0.04,0.62-0.05,0.94c-0.01,0.22,0.1,0.39,0.28,0.45c0.2,0.07,0.42,0.01,0.55-0.17
			c0.05-0.07,0.09-0.16,0.11-0.25c0.18-0.62,0.34-1.25,0.52-1.88c0.36-1.21,0.52-2.43,0.45-3.69c-0.01-0.15-0.02-0.3-0.03-0.45
			c0.06,0.08,0.09,0.17,0.11,0.26c0.07,0.4,0.13,0.8,0.19,1.2c0.03,0.21,0.18,0.32,0.38,0.29c0.18-0.03,0.29-0.17,0.27-0.37
			C12.22,9.33,12.19,8.98,12.15,8.64z"/>
		<path class="st0" d="M9.2,5.62c0.55,0.01,0.99-0.42,1-0.97c0.01-0.54-0.42-0.98-0.97-0.99C8.7,3.65,8.26,4.08,8.25,4.61
			C8.24,5.16,8.66,5.61,9.2,5.62z"/>
	</g>
</g>
</svg>
