<?xml version="1.0" encoding="utf-8"?>
<!-- Generator: Adobe Illustrator 26.0.1, SVG Export Plug-In . SVG Version: 6.00 Build 0)  -->
<svg version="1.1" id="Layer_1" xmlns="http://www.w3.org/2000/svg" xmlns:xlink="http://www.w3.org/1999/xlink" x="0px" y="0px"
	 viewBox="0 0 18.43 18.43" style="enable-background:new 0 0 18.43 18.43;" xml:space="preserve">
<style type="text/css">
	.st0{fill:#1D71B8;}
	.st1{fill:#FFFFFF;}
	.st2{fill:#C6C6C6;}
	.st3{fill:none;}
	.st4{fill:#FFFFFF;stroke:#1D71B8;stroke-width:0.05;stroke-miterlimit:10;}
	.st5{fill:none;stroke:#1D71B8;stroke-width:0.2;stroke-miterlimit:10;}
	.st6{fill:#1D71B8;stroke:#1D71B8;stroke-width:0.05;stroke-linejoin:round;stroke-miterlimit:10;}
	.st7{fill:#C6C6C6;stroke:#C6C6C6;stroke-width:0.05;stroke-linejoin:round;stroke-miterlimit:10;}
	.st8{fill:#B2B2B2;}
</style>
<g>
	<g>
		<path class="st0" d="M9.21,1.8c4.09,0,7.41,3.33,7.41,7.41s-3.33,7.41-7.41,7.41c-4.09,0-7.41-3.33-7.41-7.41S5.13,1.8,9.21,1.8
			 M9.21,0.3C4.29,0.3,0.3,4.29,0.3,9.21c0,4.92,3.99,8.91,8.91,8.91c4.92,0,8.91-3.99,8.91-8.91C18.12,4.29,14.13,0.3,9.21,0.3
			L9.21,0.3z"/>
	</g>
	<g>
		<g id="_x39_VL43L.tif_00000079474303670224606140000017987446280460565163_">
			<g>
				<path class="st0" d="M12.85,13.66c0,0.29-0.17,0.47-0.47,0.47c-0.9-0.01-1.81,0-2.71,0c-0.34,0-0.47-0.13-0.47-0.46
					c0-1.66,0-3.33,0-4.99c0-0.11,0.02-0.23,0.04-0.34c0.11-0.57,0.43-1,0.94-1.27c0.09-0.05,0.11-0.1,0.11-0.2c0-0.57,0-1.13,0-1.7
					c0-0.1,0.03-0.13,0.13-0.13c0.4,0,0.8,0.01,1.2,0c0.11,0,0.14,0.04,0.14,0.14c0,0.56,0,1.13,0,1.69c0,0.09,0.03,0.15,0.11,0.2
					c0.66,0.37,0.98,0.93,0.98,1.68c0,0.81,0,1.62,0,2.43C12.85,11.99,12.84,12.82,12.85,13.66z"/>
				<path class="st0" d="M8.35,8.65c0.11,0,0.14,0.03,0.14,0.14c0,0.55,0,1.1,0,1.64c0,0.87-0.51,1.55-1.35,1.8
					c-0.07,0.02-0.11,0.05-0.1,0.13c0,0.3,0,0.6,0,0.91c0,0.07,0.02,0.11,0.09,0.13c0.26,0.08,0.52,0.17,0.79,0.26
					c0.24,0.08,0.21,0.04,0.21,0.29c0,0.15,0,0.16-0.16,0.16c-0.84,0-1.67,0-2.51,0c-0.29,0-0.25,0.04-0.26-0.26
					c0-0.09,0.04-0.13,0.12-0.16c0.28-0.09,0.57-0.19,0.85-0.28c0.09-0.03,0.12-0.08,0.12-0.17c-0.01-0.28-0.01-0.56,0-0.84
					c0-0.11-0.03-0.15-0.14-0.18c-0.75-0.2-1.31-0.93-1.32-1.71c0-0.57,0-1.15,0-1.72c0-0.11,0.03-0.14,0.14-0.14
					c0.56,0,1.12,0,1.68,0C7.22,8.66,7.79,8.66,8.35,8.65z"/>
				<path class="st0" d="M11.01,3.94c-0.2,0-0.41,0-0.61,0c-0.08,0-0.11,0.03-0.11,0.11c0,0.17,0,0.35,0,0.52
					c0,0.07,0.02,0.11,0.1,0.11c0.42,0,0.85,0,1.27,0c0.07,0,0.1-0.03,0.1-0.1c0-0.18,0-0.36,0-0.53c0-0.08-0.03-0.11-0.11-0.11
					C11.44,3.94,11.22,3.94,11.01,3.94z"/>
			</g>
		</g>
		<g>
			<path class="st0" d="M9.22,0.44c-4.86,0-8.79,3.93-8.8,8.79c0,4.86,3.93,8.8,8.79,8.8c4.86,0,8.8-3.93,8.8-8.79
				C18.01,4.38,14.08,0.44,9.22,0.44z M9.21,16.53c-4.03,0-7.3-3.27-7.3-7.3c0-4.03,3.27-7.3,7.3-7.3c4.03,0,7.3,3.27,7.3,7.3
				C16.51,13.27,13.24,16.53,9.21,16.53z"/>
			<polygon class="st0" points="14.39,7.84 14.38,7.84 14.39,7.84 			"/>
			<polygon class="st0" points="14.39,7.84 14.39,7.84 14.39,7.84 			"/>
		</g>
	</g>
</g>
</svg>
