<?xml version="1.0" encoding="utf-8"?>
<!-- Generator: Adobe Illustrator 26.0.1, SVG Export Plug-In . SVG Version: 6.00 Build 0)  -->
<svg version="1.1" id="Layer_1" xmlns="http://www.w3.org/2000/svg" xmlns:xlink="http://www.w3.org/1999/xlink" x="0px" y="0px"
	 viewBox="0 0 18.43 18.43" style="enable-background:new 0 0 18.43 18.43;" xml:space="preserve">
<style type="text/css">
	.st0{fill:#1D71B8;}
	.st1{fill:#FFFFFF;}
	.st2{fill:#C6C6C6;}
	.st3{fill:none;}
	.st4{fill:#FFFFFF;stroke:#1D71B8;stroke-width:0.05;stroke-miterlimit:10;}
	.st5{fill:none;stroke:#1D71B8;stroke-width:0.2;stroke-miterlimit:10;}
	.st6{fill:#1D71B8;stroke:#1D71B8;stroke-width:0.05;stroke-linejoin:round;stroke-miterlimit:10;}
	.st7{fill:#C6C6C6;stroke:#C6C6C6;stroke-width:0.05;stroke-linejoin:round;stroke-miterlimit:10;}
	.st8{fill:#B2B2B2;}
</style>
<g>
	<circle class="st0" cx="9.21" cy="9.21" r="8.91"/>
	<g id="AD7UY9.tif_00000050646869431539058280000004982252529581960361_">
		<g>
			<path class="st1" d="M9.33,13.6c-1.55,0-3.09,0-4.64,0c-0.53,0-0.72-0.19-0.72-0.74c0-1.21,0-2.43,0-3.64
				c0-0.08-0.05-0.19,0.05-0.23c0.07-0.03,0.13,0.05,0.18,0.1c0.11,0.09,0.22,0.19,0.34,0.28C4.88,9.66,5.25,9.8,5.69,9.8
				c0.62-0.01,1.24,0,1.86,0c0.19,0,0.35,0,0.38,0.27c0.03,0.22,0.2,0.33,0.41,0.33c0.67,0,1.33,0,2,0c0.24,0,0.4-0.13,0.43-0.38
				c0.03-0.21,0.14-0.23,0.3-0.23c0.54,0,1.08-0.03,1.62,0.01c0.66,0.04,1.22-0.16,1.7-0.63c0.08-0.08,0.17-0.22,0.28-0.17
				c0.1,0.05,0.04,0.21,0.04,0.31c0,1.17,0,2.35,0,3.52c0,0.57-0.18,0.75-0.73,0.75C12.42,13.6,10.88,13.6,9.33,13.6z"/>
			<path class="st1" d="M5.71,5.61c0.37,0,0.74-0.01,1.11,0c0.18,0,0.26-0.07,0.26-0.26c-0.01-0.21-0.01-0.41,0-0.62
				c0.03-0.6,0.4-0.98,0.97-0.98c0.86-0.01,1.73-0.01,2.59,0c0.56,0,0.93,0.37,0.97,0.96c0.01,0.19,0.02,0.38,0,0.56
				c-0.02,0.25,0.06,0.35,0.32,0.34c0.69-0.02,1.38-0.01,2.08,0c0.51,0,0.7,0.2,0.7,0.73c0,0.39-0.01,0.79,0,1.18
				c0,0.17-0.04,0.28-0.17,0.39c-0.25,0.2-0.49,0.41-0.74,0.62c-0.37,0.31-0.8,0.41-1.26,0.42c-0.49,0.01-0.97,0-1.46,0
				c-0.18,0-0.3-0.03-0.33-0.26c-0.03-0.23-0.19-0.35-0.42-0.35c-0.67,0-1.33,0-2,0c-0.24,0-0.39,0.13-0.43,0.38
				C7.89,8.86,7.84,8.95,7.7,8.95c-0.61,0-1.22,0.01-1.83-0.02C5.42,8.91,5.07,8.65,4.69,8.4C4.09,8,3.85,7.49,3.97,6.76
				c0.03-0.16,0-0.34,0-0.51c0.01-0.41,0.21-0.62,0.6-0.64c0.02,0,0.04,0,0.05,0C4.99,5.61,5.35,5.61,5.71,5.61z M9.31,5.61
				c0.27,0,0.54,0,0.81,0c0.53,0,0.52,0,0.52-0.55c0-0.25-0.1-0.33-0.33-0.32c-0.58,0.01-1.17,0-1.75,0C7.99,4.74,8,4.74,8,5.33
				c0,0.23,0.08,0.29,0.29,0.28C8.63,5.6,8.97,5.61,9.31,5.61z"/>
			<path class="st1" d="M9.34,9c0.15,0,0.31,0,0.46,0c0.3,0,0.34,0.06,0.35,0.39c0.01,0.25-0.09,0.36-0.33,0.36
				c-0.33-0.01-0.67-0.01-1,0c-0.25,0-0.29-0.17-0.28-0.38C8.54,9.17,8.56,8.99,8.82,9C8.99,9.01,9.16,9,9.34,9z"/>
		</g>
	</g>
</g>
</svg>
