<?xml version="1.0" encoding="utf-8"?>
<!-- Generator: Adobe Illustrator 26.0.1, SVG Export Plug-In . SVG Version: 6.00 Build 0)  -->
<svg version="1.1" id="Layer_1" xmlns="http://www.w3.org/2000/svg" xmlns:xlink="http://www.w3.org/1999/xlink" x="0px" y="0px"
	 viewBox="0 0 18.43 18.43" style="enable-background:new 0 0 18.43 18.43;" xml:space="preserve">
<style type="text/css">
	.st0{fill:#1D71B8;}
	.st1{fill:#FFFFFF;}
	.st2{fill:#C6C6C6;}
	.st3{fill:none;}
	.st4{fill:#FFFFFF;stroke:#1D71B8;stroke-width:0.05;stroke-miterlimit:10;}
	.st5{fill:none;stroke:#1D71B8;stroke-width:0.2;stroke-miterlimit:10;}
	.st6{fill:#1D71B8;stroke:#1D71B8;stroke-width:0.05;stroke-linejoin:round;stroke-miterlimit:10;}
	.st7{fill:#C6C6C6;stroke:#C6C6C6;stroke-width:0.05;stroke-linejoin:round;stroke-miterlimit:10;}
	.st8{fill:#B2B2B2;}
</style>
<g>
	<circle class="st0" cx="9.21" cy="9.21" r="8.91"/>
	<g>
		<g>
			<path class="st1" d="M14.36,8.86c-0.4-0.61-0.86-1.17-1.21-1.8c-0.14-0.2-0.26-0.33-0.37-0.44c-0.37-0.27-0.62-0.25-1.09-0.27
				H9.23H6.77C6.22,6.38,5.97,6.39,5.68,6.62C5.56,6.72,5.45,6.85,5.31,7.05c-0.35,0.63-0.81,1.2-1.21,1.8
				C3.85,9.23,3.95,9.73,4.27,9.97c0.36,0.26,0.83,0.22,1.14-0.12C5.52,9.72,5.6,9.58,5.69,9.45C5.74,9.38,5.78,9.27,5.88,9.3
				c0.1,0.02,0.08,0.14,0.09,0.22c0.07,0.67,0.13,1.33,0.2,2c0.09,0.89,0.18,1.78,0.27,2.68c0.03,0.28,0.09,0.5,0.46,0.49
				c0.77-0.01,1.55,0,2.32,0s1.55,0,2.32,0c0.36,0,0.43-0.22,0.46-0.49c0.09-0.89,0.18-1.78,0.27-2.68c0.07-0.67,0.13-1.33,0.2-2
				c0.01-0.08-0.01-0.2,0.09-0.22c0.1-0.02,0.14,0.09,0.19,0.16c0.1,0.13,0.18,0.27,0.29,0.39c0.31,0.34,0.78,0.39,1.14,0.12
				C14.51,9.73,14.6,9.23,14.36,8.86z"/>
			<g>
				<path class="st1" d="M7.7,3.31C6.86,3.31,6.17,4,6.17,4.84S6.86,6.37,7.7,6.37c0.84,0,1.53-0.68,1.53-1.53S8.54,3.31,7.7,3.31z"
					/>
				<path class="st1" d="M10.75,3.31C9.91,3.31,9.23,4,9.23,4.84s0.68,1.53,1.53,1.53c0.84,0,1.53-0.68,1.53-1.53
					S11.6,3.31,10.75,3.31z"/>
			</g>
		</g>
		<path class="st0" d="M10.39,8.41c-0.18-0.16-0.41-0.24-0.64-0.24c-0.03,0-0.06,0-0.09,0C9.5,8.18,9.36,8.23,9.23,8.31
			C9.03,8.19,8.81,8.14,8.58,8.17C8.33,8.21,8.11,8.32,7.96,8.52C7.74,8.77,7.67,9.07,7.75,9.4C7.8,9.57,7.88,9.72,8.03,9.87
			l0.75,0.75c0.12,0.12,0.28,0.19,0.45,0.19c0.17,0,0.32-0.07,0.45-0.19c0.19-0.19,0.39-0.39,0.58-0.58l0.1-0.1
			c0.05-0.05,0.09-0.09,0.14-0.14c0.18-0.21,0.26-0.46,0.23-0.74C10.7,8.79,10.58,8.57,10.39,8.41z"/>
	</g>
</g>
</svg>
