<?xml version="1.0" encoding="utf-8"?>
<!-- Generator: Adobe Illustrator 26.0.1, SVG Export Plug-In . SVG Version: 6.00 Build 0)  -->
<svg version="1.1" id="Layer_1" xmlns="http://www.w3.org/2000/svg" xmlns:xlink="http://www.w3.org/1999/xlink" x="0px" y="0px"
	 viewBox="0 0 18.43 18.43" style="enable-background:new 0 0 18.43 18.43;" xml:space="preserve">
<style type="text/css">
	.st0{fill:#1D71B8;}
	.st1{fill:#FFFFFF;}
	.st2{fill:#C6C6C6;}
	.st3{fill:none;}
	.st4{fill:#FFFFFF;stroke:#1D71B8;stroke-width:0.05;stroke-miterlimit:10;}
	.st5{fill:none;stroke:#1D71B8;stroke-width:0.2;stroke-miterlimit:10;}
	.st6{fill:#1D71B8;stroke:#1D71B8;stroke-width:0.05;stroke-linejoin:round;stroke-miterlimit:10;}
	.st7{fill:#C6C6C6;stroke:#C6C6C6;stroke-width:0.05;stroke-linejoin:round;stroke-miterlimit:10;}
	.st8{fill:#B2B2B2;}
</style>
<g>
	<g>
		<path class="st8" d="M9.21,1.8c4.09,0,7.41,3.33,7.41,7.41s-3.33,7.41-7.41,7.41S1.8,13.3,1.8,9.21S5.13,1.8,9.21,1.8 M9.21,0.3
			C4.29,0.3,0.3,4.29,0.3,9.21c0,4.92,3.99,8.91,8.91,8.91s8.91-3.99,8.91-8.91C18.12,4.29,14.13,0.3,9.21,0.3L9.21,0.3z"/>
	</g>
	<g>
		<path class="st8" d="M11.74,8.55c-0.09-0.62-0.23-1.22-0.54-1.77c-0.28-0.49-0.66-0.84-1.23-0.96C9.9,5.81,9.82,5.81,9.75,5.84
			c-0.34,0.13-0.68,0.13-1.02,0C8.67,5.81,8.59,5.8,8.54,5.82C8.32,5.9,8.1,5.97,7.91,6.09c-0.44,0.28-0.68,0.72-0.85,1.2
			C6.77,8.07,6.68,8.89,6.61,9.71c-0.02,0.18,0.12,0.32,0.3,0.33c0.2,0.01,0.32-0.09,0.35-0.29C7.34,9.23,7.4,8.72,7.5,8.21
			c0.07-0.36,0.24-0.7,0.48-1.03c0,0.09,0,0.15,0,0.2C7.94,8.2,7.9,9.01,7.88,9.82c-0.05,1.54,0.21,3.05,0.37,4.57
			c0.03,0.24,0.23,0.38,0.47,0.37c0.29-0.02,0.46-0.23,0.45-0.56c-0.07-1.28-0.18-2.56-0.09-3.84c0.01-0.11,0.01-0.21,0.02-0.32
			c0.11,0,0.2,0,0.31,0c0.01,0.68,0.04,1.36,0.03,2.03c-0.02,0.72-0.08,1.43-0.12,2.15c-0.01,0.18,0.04,0.33,0.19,0.44
			c0.31,0.23,0.69,0.04,0.74-0.35c0.05-0.4,0.09-0.81,0.14-1.21c0.16-1.27,0.27-2.55,0.21-3.83c-0.03-0.68-0.06-1.37-0.09-2.05
			c0.28,0.34,0.45,0.73,0.52,1.15c0.08,0.45,0.13,0.9,0.19,1.35c0.03,0.23,0.17,0.34,0.38,0.31c0.2-0.02,0.3-0.17,0.27-0.39
			C11.83,9.28,11.8,8.92,11.74,8.55z"/>
		<path class="st8" d="M9.21,5.61c0.54,0.01,0.99-0.41,1.01-0.95c0.02-0.55-0.41-1-0.96-1.01C8.72,3.65,8.28,4.07,8.27,4.62
			C8.25,5.15,8.68,5.6,9.21,5.61z"/>
	</g>
</g>
</svg>
