<?xml version="1.0" encoding="utf-8"?>
<!-- Generator: Adobe Illustrator 26.0.1, SVG Export Plug-In . SVG Version: 6.00 Build 0)  -->
<svg version="1.1" id="Layer_1" xmlns="http://www.w3.org/2000/svg" xmlns:xlink="http://www.w3.org/1999/xlink" x="0px" y="0px"
	 viewBox="0 0 18.43 18.43" style="enable-background:new 0 0 18.43 18.43;" xml:space="preserve">
<style type="text/css">
	.st0{fill:#1D1D1B;}
	.st1{fill:#FFFFFF;}
	.st2{fill:#C6C6C6;}
	.st3{fill:none;}
	.st4{fill:#FFFFFF;stroke:#1D1D1B;stroke-width:0.05;stroke-miterlimit:10;}
	.st5{fill:none;stroke:#1D1D1B;stroke-width:0.2;stroke-miterlimit:10;}
	.st6{fill:#1D1D1B;stroke:#1D1D1B;stroke-width:0.05;stroke-linejoin:round;stroke-miterlimit:10;}
	.st7{fill:#C6C6C6;stroke:#C6C6C6;stroke-width:0.05;stroke-linejoin:round;stroke-miterlimit:10;}
	.st8{fill:#B2B2B2;}
</style>
<g>
	<circle class="st0" cx="9.21" cy="9.21" r="8.91"/>
	<g>
		<path class="st3" d="M10.2,12.18c-0.09-0.13-0.17-0.25-0.26-0.38c-0.07-0.1-0.18-0.13-0.29-0.13c-0.02,0-0.04,0-0.06,0
			c-0.26,0-0.51,0-0.77,0.01c-0.13,0-0.25,0.02-0.33,0.13c-0.09,0.13-0.17,0.26-0.26,0.39c-0.09,0.14-0.19,0.27-0.28,0.41
			c-0.06,0.1-0.06,0.22,0.05,0.29c0.04,0.02,0.08,0.03,0.11,0.03c0.06,0,0.12-0.04,0.17-0.1c0,0,0,0,0.01,0
			c0.04-0.05,0.07-0.11,0.12-0.16c0.06-0.06,0.09-0.19,0.17-0.19c0.01,0,0.02,0,0.03,0.01c0.13,0.05,0.06,0.19,0.05,0.3
			c-0.03,0.52-0.07,1.04-0.1,1.56c0,0.04,0.01,0.07,0.01,0.1c0.01,0.11,0.03,0.22,0.18,0.23c0.01,0,0.02,0,0.02,0
			c0.13,0,0.17-0.09,0.19-0.19c0.01-0.05,0.03-0.09,0.03-0.14c0.03-0.26,0.05-0.53,0.08-0.79c0.01-0.08,0.04-0.15,0.14-0.15
			c0,0,0,0,0,0c0.1,0,0.13,0.07,0.14,0.16c0.03,0.24,0.05,0.48,0.07,0.73c0.01,0.07,0.01,0.14,0.02,0.21
			c0.02,0.1,0.06,0.18,0.19,0.18c0.01,0,0.02,0,0.04,0c0.15-0.02,0.19-0.11,0.19-0.22c0-0.07,0-0.14-0.01-0.21
			c0-0.04-0.02-0.09-0.02-0.13c-0.03-0.56-0.06-1.11-0.1-1.67c0.03-0.01,0.07-0.01,0.1-0.02c0.09,0.13,0.18,0.27,0.28,0.4
			c0,0,0,0,0,0c0.05,0.06,0.1,0.09,0.17,0.09c0.04,0,0.08-0.01,0.13-0.04c0.11-0.07,0.13-0.17,0.06-0.29
			C10.39,12.46,10.29,12.32,10.2,12.18z"/>
		<path class="st1" d="M9.22,6.39c0.86,0,1.57-0.7,1.57-1.56c0-0.87-0.7-1.57-1.57-1.57c-0.86,0-1.57,0.7-1.57,1.57
			C7.66,5.69,8.36,6.39,9.22,6.39z"/>
		<path class="st1" d="M13,8.96c-0.51-0.77-1.04-1.54-1.55-2.31c-0.13-0.19-0.29-0.27-0.5-0.26c-0.47,0.01-0.94,0-1.47,0l-0.53,0
			c-0.52,0-1,0-1.47,0c-0.19,0-0.35,0.04-0.46,0.21c-0.55,0.82-1.1,1.63-1.63,2.46c-0.24,0.38-0.12,0.9,0.23,1.16
			c0.39,0.28,0.86,0.21,1.16-0.17c0.16-0.21,0.31-0.43,0.51-0.71C7.36,10.1,7.43,10.8,7.5,11.5c0.03,0.27,0.06,0.53,0.08,0.8
			c-0.01,0.02-0.02,0.03-0.03,0.05c-0.11,0.17-0.14,0.36-0.1,0.54c0.03,0.14,0.12,0.26,0.23,0.35c0.03,0.02,0.05,0.05,0.08,0.07
			c0.11,0.07,0.24,0.11,0.37,0.11c0.01,0,0.01,0,0.02,0l0,0.04c-0.02,0.29-0.04,0.57-0.06,0.86c-0.05,0.76,0.52,0.84,0.63,0.85
			c0,0,0.01,0,0.01,0c0.13,0,0.32-0.02,0.48-0.15c0.15,0.13,0.32,0.15,0.42,0.15h0.02l0.06,0c0.21-0.02,0.68-0.15,0.63-0.88
			c-0.01-0.1-0.01-0.15-0.02-0.2l-0.04-0.67c0,0,0.01,0,0.01,0c0.14,0,0.27-0.04,0.39-0.12c0.02-0.01,0.03-0.03,0.05-0.05
			c0.13-0.1,0.23-0.24,0.26-0.39c0.04-0.18,0-0.36-0.11-0.52c-0.01-0.02-0.03-0.04-0.04-0.07c0.07-0.69,0.14-1.39,0.22-2.08
			c0.03-0.23-0.03-0.62,0.12-0.66c0.21-0.06,0.3,0.3,0.44,0.48c0.32,0.41,0.79,0.5,1.21,0.21C13.21,9.95,13.29,9.39,13,8.96z
			 M9.22,10.3C9.23,10.3,9.23,10.3,9.22,10.3c0.29,0,0.56,0.27,0.55,0.55c0,0.27-0.28,0.55-0.54,0.55c0,0-0.01,0-0.01,0
			c-0.31-0.01-0.55-0.25-0.55-0.54C8.67,10.55,8.92,10.3,9.22,10.3z M10.42,12.89c-0.04,0.03-0.09,0.04-0.13,0.04
			c-0.06,0-0.12-0.03-0.17-0.09c0,0,0,0,0,0c-0.1-0.13-0.19-0.27-0.28-0.4c-0.03,0.01-0.06,0.01-0.1,0.02
			c0.03,0.56,0.06,1.11,0.1,1.67c0,0.04,0.02,0.09,0.02,0.13c0,0.07,0.01,0.14,0.01,0.21c0,0.11-0.04,0.21-0.19,0.22
			c-0.01,0-0.03,0-0.04,0c-0.13,0-0.17-0.08-0.19-0.18c-0.01-0.07-0.01-0.14-0.02-0.21c-0.02-0.24-0.04-0.48-0.07-0.73
			c-0.01-0.08-0.04-0.15-0.14-0.16c0,0,0,0,0,0c-0.1,0-0.13,0.07-0.14,0.15c-0.03,0.26-0.05,0.53-0.08,0.79
			c0,0.05-0.02,0.09-0.03,0.14c-0.03,0.1-0.07,0.19-0.19,0.19c-0.01,0-0.01,0-0.02,0c-0.14-0.01-0.17-0.12-0.18-0.23
			c0-0.04-0.01-0.07-0.01-0.1c0.03-0.52,0.07-1.04,0.1-1.56c0.01-0.1,0.08-0.25-0.05-0.3c-0.01,0-0.02-0.01-0.03-0.01
			c-0.08,0-0.11,0.13-0.17,0.19c-0.04,0.05-0.08,0.11-0.12,0.16c0,0,0,0-0.01,0c-0.05,0.06-0.11,0.1-0.17,0.1
			c-0.04,0-0.08-0.01-0.11-0.03c-0.11-0.07-0.12-0.19-0.05-0.29c0.09-0.14,0.18-0.27,0.28-0.41c0.09-0.13,0.17-0.26,0.26-0.39
			c0.08-0.11,0.2-0.13,0.33-0.13c0.26,0,0.51-0.01,0.77-0.01c0.02,0,0.04,0,0.06,0c0.11,0,0.22,0.03,0.29,0.13l0.54,0.8
			C10.56,12.71,10.54,12.82,10.42,12.89z"/>
	</g>
</g>
</svg>
