<?xml version="1.0" encoding="utf-8"?>
<!-- Generator: Adobe Illustrator 26.0.1, SVG Export Plug-In . SVG Version: 6.00 Build 0)  -->
<svg version="1.1" id="Layer_1" xmlns="http://www.w3.org/2000/svg" xmlns:xlink="http://www.w3.org/1999/xlink" x="0px" y="0px"
	 viewBox="0 0 18.43 18.43" style="enable-background:new 0 0 18.43 18.43;" xml:space="preserve">
<style type="text/css">
	.st0{fill:#1D1D1B;}
	.st1{fill:#FFFFFF;}
	.st2{fill:#C6C6C6;}
	.st3{fill:none;}
	.st4{fill:#FFFFFF;stroke:#1D1D1B;stroke-width:0.05;stroke-miterlimit:10;}
	.st5{fill:none;stroke:#1D1D1B;stroke-width:0.2;stroke-miterlimit:10;}
	.st6{fill:#1D1D1B;stroke:#1D1D1B;stroke-width:0.05;stroke-linejoin:round;stroke-miterlimit:10;}
	.st7{fill:#C6C6C6;stroke:#C6C6C6;stroke-width:0.05;stroke-linejoin:round;stroke-miterlimit:10;}
	.st8{fill:#B2B2B2;}
</style>
<g>
	<circle class="st0" cx="9.21" cy="9.21" r="8.91"/>
	<g>
		<path class="st3" d="M8.17,4.96c0.34-0.01,0.68,0,1.02,0c0.27,0,0.54,0,0.81,0c0.53,0,0.52,0,0.52-0.55c0-0.25-0.1-0.33-0.33-0.32
			c-0.58,0.01-1.17,0-1.75,0c-0.57,0-0.56,0-0.56,0.59C7.88,4.91,7.97,4.97,8.17,4.96z"/>
		<path class="st3" d="M9.22,11.02c-1.06,0-1.92,0.86-1.92,1.92l0,0c0,1.06,0.86,1.92,1.92,1.92c1.06,0,1.92-0.86,1.92-1.92v0
			C11.15,11.88,10.28,11.02,9.22,11.02z M9.8,13.02c0.14,0.14,0.28,0.27,0.41,0.42c0.1,0.11,0.13,0.24,0.06,0.39
			c-0.06,0.13-0.17,0.19-0.29,0.2c-0.13,0-0.22-0.04-0.29-0.12c-0.12-0.12-0.25-0.25-0.37-0.37c-0.06-0.07-0.11-0.07-0.17,0
			c-0.13,0.14-0.26,0.27-0.4,0.4c-0.1,0.1-0.23,0.13-0.36,0.08c-0.13-0.05-0.21-0.15-0.23-0.28c-0.02-0.12,0.03-0.22,0.11-0.3
			c0.13-0.13,0.26-0.26,0.39-0.39c0.06-0.06,0.06-0.1,0-0.16c-0.13-0.12-0.25-0.25-0.37-0.37c-0.16-0.17-0.18-0.37-0.03-0.52
			c0.14-0.15,0.36-0.14,0.53,0.03c0.12,0.12,0.24,0.23,0.35,0.35c0.07,0.08,0.12,0.09,0.2,0c0.11-0.12,0.24-0.24,0.36-0.36
			c0.16-0.16,0.38-0.17,0.52-0.02c0.15,0.15,0.14,0.35-0.03,0.52c-0.13,0.13-0.25,0.26-0.38,0.38C9.74,12.92,9.74,12.96,9.8,13.02z"
			/>
		<path class="st1" d="M10.2,11.97c-0.14-0.14-0.36-0.13-0.52,0.02c-0.12,0.12-0.24,0.23-0.36,0.36c-0.07,0.08-0.13,0.07-0.2,0
			C9.01,12.23,8.89,12.11,8.78,12c-0.17-0.16-0.39-0.17-0.53-0.03c-0.14,0.15-0.13,0.35,0.03,0.52c0.12,0.13,0.25,0.25,0.37,0.37
			c0.06,0.06,0.06,0.1,0,0.16c-0.13,0.13-0.26,0.26-0.39,0.39c-0.08,0.08-0.13,0.18-0.11,0.3c0.02,0.14,0.09,0.24,0.23,0.28
			c0.14,0.05,0.26,0.02,0.36-0.08c0.14-0.13,0.27-0.26,0.4-0.4c0.07-0.07,0.11-0.06,0.17,0c0.12,0.13,0.25,0.25,0.37,0.37
			c0.07,0.07,0.16,0.12,0.29,0.12c0.12-0.01,0.23-0.07,0.29-0.2c0.07-0.14,0.04-0.27-0.06-0.39c-0.13-0.14-0.27-0.28-0.41-0.42
			c-0.06-0.05-0.06-0.09,0-0.15c0.13-0.12,0.26-0.25,0.38-0.38C10.34,12.32,10.35,12.11,10.2,11.97z"/>
		<path class="st1" d="M4.58,7.75C4.95,7.99,5.3,8.26,5.74,8.28C6.36,8.3,6.97,8.29,7.58,8.3c0.15,0,0.19-0.09,0.21-0.23
			c0.04-0.25,0.19-0.38,0.43-0.38c0.67,0,1.33,0,2,0c0.23,0,0.4,0.12,0.42,0.35c0.03,0.23,0.15,0.26,0.33,0.26
			c0.49-0.01,0.97,0,1.46,0c0.46-0.01,0.89-0.11,1.26-0.42c0.25-0.21,0.48-0.42,0.74-0.62c0.13-0.1,0.17-0.22,0.17-0.39
			c-0.01-0.39,0-0.79,0-1.18c0-0.53-0.19-0.73-0.7-0.73c-0.69,0-1.39-0.01-2.08,0c-0.26,0.01-0.34-0.09-0.32-0.34
			c0.01-0.19,0.01-0.38,0-0.56c-0.04-0.58-0.41-0.95-0.97-0.96c-0.86-0.01-1.73-0.01-2.59,0c-0.57,0-0.94,0.38-0.97,0.98
			c-0.01,0.21-0.01,0.41,0,0.62c0.01,0.2-0.07,0.27-0.26,0.26c-0.37-0.01-0.74,0-1.11,0c-0.36,0-0.72,0-1.08,0
			c-0.02,0-0.04,0-0.05,0C4.07,4.98,3.87,5.19,3.86,5.6c0,0.17,0.02,0.34-0.01,0.51C3.73,6.83,3.97,7.35,4.58,7.75z M8.44,4.09
			c0.58,0,1.17,0.01,1.75,0c0.23,0,0.32,0.07,0.33,0.32c0.01,0.55,0.01,0.55-0.52,0.55c-0.27,0-0.54,0-0.81,0
			c-0.34,0-0.68-0.01-1.02,0c-0.2,0.01-0.29-0.05-0.29-0.28C7.89,4.09,7.88,4.09,8.44,4.09z"/>
		<path class="st1" d="M9.22,8.35c-0.17,0-0.34,0.01-0.51,0C8.44,8.33,8.42,8.52,8.42,8.72C8.41,8.93,8.44,9.1,8.7,9.09
			c0.33,0,0.67-0.01,1,0c0.24,0.01,0.34-0.11,0.33-0.36c-0.01-0.33-0.05-0.38-0.35-0.39C9.52,8.35,9.37,8.35,9.22,8.35z"/>
		<path class="st1" d="M14.55,8.35c-0.11-0.06-0.2,0.09-0.28,0.17c-0.48,0.47-1.04,0.68-1.7,0.63c-0.54-0.04-1.08-0.01-1.62-0.01
			c-0.16,0-0.27,0.02-0.3,0.23c-0.03,0.24-0.2,0.38-0.43,0.38c-0.67,0-1.33,0-2,0C8,9.75,7.83,9.63,7.81,9.42
			C7.78,9.15,7.62,9.14,7.43,9.14c-0.62,0-1.24,0-1.86,0C5.13,9.15,4.76,9,4.43,8.72C4.31,8.62,4.2,8.53,4.09,8.44
			c-0.06-0.05-0.11-0.13-0.18-0.1c-0.1,0.04-0.05,0.15-0.05,0.23c0,1.21,0,2.42,0,3.64c0,0.55,0.19,0.74,0.72,0.74
			c0.65,0,1.29,0,1.94,0v0c0,1.5,1.21,2.71,2.71,2.71c1.5,0,2.71-1.21,2.71-2.71v0c0.64,0,1.28,0,1.92,0c0.55,0,0.73-0.18,0.73-0.75
			c0-1.17,0-2.35,0-3.52C14.59,8.56,14.64,8.4,14.55,8.35z M11.15,12.94c0,1.06-0.86,1.92-1.92,1.92c-1.06,0-1.92-0.86-1.92-1.92
			l0,0c0-1.06,0.86-1.92,1.92-1.92C10.28,11.02,11.15,11.88,11.15,12.94L11.15,12.94z"/>
	</g>
</g>
</svg>
