<?xml version="1.0" encoding="utf-8"?>
<!-- Generator: Adobe Illustrator 26.0.1, SVG Export Plug-In . SVG Version: 6.00 Build 0)  -->
<svg version="1.1" id="Layer_1" xmlns="http://www.w3.org/2000/svg" xmlns:xlink="http://www.w3.org/1999/xlink" x="0px" y="0px"
	 viewBox="0 0 18.43 18.43" style="enable-background:new 0 0 18.43 18.43;" xml:space="preserve">
<style type="text/css">
	.st0{fill:#1D1D1B;}
	.st1{fill:#FFFFFF;}
	.st2{fill:#C6C6C6;}
	.st3{fill:none;}
	.st4{fill:#FFFFFF;stroke:#1D1D1B;stroke-width:0.05;stroke-miterlimit:10;}
	.st5{fill:none;stroke:#1D1D1B;stroke-width:0.2;stroke-miterlimit:10;}
	.st6{fill:#1D1D1B;stroke:#1D1D1B;stroke-width:0.05;stroke-linejoin:round;stroke-miterlimit:10;}
	.st7{fill:#C6C6C6;stroke:#C6C6C6;stroke-width:0.05;stroke-linejoin:round;stroke-miterlimit:10;}
	.st8{fill:#B2B2B2;}
</style>
<g>
	<g>
		<path class="st0" d="M9.21,1.8c4.09,0,7.41,3.33,7.41,7.41s-3.33,7.41-7.41,7.41S1.8,13.3,1.8,9.21S5.13,1.8,9.21,1.8 M9.21,0.3
			C4.29,0.3,0.3,4.29,0.3,9.21s3.99,8.91,8.91,8.91s8.91-3.99,8.91-8.91S14.13,0.3,9.21,0.3L9.21,0.3z"/>
	</g>
	<g>
		<path class="st0" d="M11.66,8.52c-0.08-0.65-0.2-1.29-0.49-1.88c-0.24-0.48-0.58-0.85-1.11-1c-0.08-0.02-0.17-0.02-0.25,0
			C9.55,5.72,9.3,5.76,9.05,5.67C8.87,5.6,8.72,5.63,8.56,5.7C8.44,5.76,8.33,5.82,8.22,5.9C7.86,6.16,7.65,6.52,7.49,6.92
			C7.17,7.76,7.1,8.63,7.02,9.51C7,9.69,7.13,9.82,7.31,9.83C7.5,9.85,7.64,9.74,7.67,9.54c0.04-0.35,0.08-0.71,0.12-1.06
			C7.85,7.96,7.98,7.45,8.3,7c0,0.2,0.01,0.38,0,0.56c-0.07,1.4-0.19,2.81-0.05,4.22c0.08,0.79,0.1,1.58,0.15,2.37
			c0.02,0.28,0.21,0.44,0.48,0.41c0.25-0.03,0.44-0.22,0.44-0.47c0-0.27-0.02-0.54-0.02-0.81c0-1.1-0.01-2.2-0.01-3.3
			c0-0.09,0.01-0.17,0.02-0.27c0.06,0,0.1,0,0.15,0c0.01,0.02,0.02,0.03,0.02,0.05c0.02,0.66,0.05,1.33,0.05,1.99
			c0,0.75-0.04,1.5-0.06,2.26c-0.01,0.32,0.19,0.54,0.49,0.55c0.28,0.01,0.43-0.16,0.45-0.5c0.03-0.44,0.05-0.89,0.08-1.33
			c0.04-0.78,0.13-1.55,0.12-2.33c-0.01-1.03-0.08-2.06-0.13-3.09c0-0.1,0-0.2,0-0.32c0.24,0.34,0.39,0.69,0.45,1.07
			c0.08,0.49,0.13,0.98,0.19,1.47c0.03,0.22,0.16,0.33,0.37,0.31c0.2-0.02,0.3-0.17,0.28-0.39C11.72,9.14,11.69,8.83,11.66,8.52z"/>
		<path class="st0" d="M9.39,5.4c0.54,0,0.98-0.44,0.98-0.98c0-0.54-0.44-0.98-0.98-0.98c-0.54,0-0.98,0.44-0.98,0.98
			C8.41,4.96,8.85,5.4,9.39,5.4z"/>
	</g>
</g>
</svg>
