<?xml version="1.0" encoding="utf-8"?>
<!-- Generator: Adobe Illustrator 26.0.1, SVG Export Plug-In . SVG Version: 6.00 Build 0)  -->
<svg version="1.1" id="Layer_1" xmlns="http://www.w3.org/2000/svg" xmlns:xlink="http://www.w3.org/1999/xlink" x="0px" y="0px"
	 viewBox="0 0 18.43 18.43" style="enable-background:new 0 0 18.43 18.43;" xml:space="preserve">
<style type="text/css">
	.st0{fill:#1D1D1B;}
	.st1{fill:#FFFFFF;}
	.st2{fill:#C6C6C6;}
	.st3{fill:none;}
	.st4{fill:#FFFFFF;stroke:#1D1D1B;stroke-width:0.05;stroke-miterlimit:10;}
	.st5{fill:none;stroke:#1D1D1B;stroke-width:0.2;stroke-miterlimit:10;}
	.st6{fill:#1D1D1B;stroke:#1D1D1B;stroke-width:0.05;stroke-linejoin:round;stroke-miterlimit:10;}
	.st7{fill:#C6C6C6;stroke:#C6C6C6;stroke-width:0.05;stroke-linejoin:round;stroke-miterlimit:10;}
	.st8{fill:#B2B2B2;}
</style>
<g>
	<circle class="st0" cx="9.21" cy="9.21" r="8.91"/>
	<g>
		<g>
			<path class="st3" d="M6.49,9.07c0-0.25,0.05-0.49,0.12-0.72c-0.34,0-0.68,0-1.02,0C5.07,8.36,4.68,8.7,4.61,9.18
				c-0.04,0.25-0.06,0.5-0.06,0.76c-0.01,1.07,0,2.13,0,3.2c0,0.08-0.01,0.2,0.04,0.24c0.11,0.09,0.25,0.18,0.39,0.19
				c0.19,0.01,0.12-0.17,0.13-0.27c0.01-0.38,0-0.76,0-1.14c0-0.05-0.02-0.11,0.01-0.15c0.05-0.08,0.12-0.14,0.18-0.21
				c0.07,0.07,0.15,0.14,0.2,0.22c0.03,0.04,0.01,0.12,0.01,0.17c0,0.47,0,0.95,0,1.42c0,0.27,0.14,0.4,0.39,0.4
				c0.3,0,0.25-0.2,0.25-0.37c0-0.46,0-0.91,0-1.37c0-0.07-0.02-0.15,0.01-0.2c0.05-0.09,0.13-0.16,0.19-0.23
				c0.07,0.07,0.15,0.14,0.2,0.22c0.03,0.04,0.01,0.12,0.01,0.18c0,0.57,0,1.15,0,1.72c0,0.24,0.2,0.38,0.42,0.26
				c0.11-0.06,0.21-0.21,0.21-0.33c0.02-0.56,0.01-1.12,0.01-1.67c0-0.14-0.01-0.3,0.19-0.3c0.2,0,0.19,0.15,0.19,0.29
				c0,0.5,0.01,1,0,1.5c0,0.22,0.11,0.27,0.3,0.24c0.24-0.04,0.31-0.2,0.31-0.4c0-0.67,0-1.34,0-2.01
				C7.18,11.12,6.49,10.17,6.49,9.07z"/>
			<path class="st3" d="M13.82,8.59c0.05-1.3,0.04-2.6,0.06-3.9c0-0.22-0.15-0.35-0.37-0.35c-0.27,0-0.19,0.19-0.19,0.33
				c-0.01,0.38,0,0.76,0,1.14c0,0.14,0.02,0.32-0.21,0.31c-0.2-0.01-0.19-0.16-0.19-0.3c0-0.11,0-0.22,0-0.33c0-0.41,0-0.81,0-1.22
				c0-0.23-0.16-0.37-0.38-0.37c-0.26,0-0.27,0.16-0.26,0.34c0.01,0.15,0,0.3,0,0.46c0,0.37,0.01,0.74-0.01,1.12
				c-0.01,0.09-0.11,0.23-0.19,0.25c-0.17,0.03-0.21-0.11-0.21-0.25c0-0.06,0-0.12,0-0.18c0-0.57,0-1.13,0-1.7
				c0-0.21-0.15-0.32-0.36-0.27c-0.2,0.05-0.28,0.17-0.28,0.37c0.01,0.54,0,1.08,0,1.62c0,0.14,0.04,0.32-0.19,0.32
				c-0.23,0.01-0.2-0.17-0.2-0.31c0-0.5-0.01-1,0-1.5c0-0.19-0.09-0.24-0.26-0.22c-0.23,0.02-0.34,0.14-0.34,0.43
				c0,0.72,0,1.45,0,2.17c1.08,0.37,1.86,1.36,1.86,2.52c0,0.17-0.02,0.33-0.05,0.49c0.22,0,0.44,0,0.66,0
				C13.38,9.56,13.8,9.23,13.82,8.59z"/>
			<path class="st1" d="M12.58,11.72c0.59,0,1.18,0,1.78,0c0.35,0,0.52-0.14,0.53-0.4c0-0.27-0.18-0.41-0.51-0.41
				c-0.56,0-1.11,0-1.67,0c-0.09,0-0.19-0.03-0.28-0.04c0-0.03,0-0.06,0-0.09c0.09-0.02,0.19-0.05,0.28-0.05c0.47,0,0.94,0,1.41,0
				c0.21,0,0.36-0.06,0.43-0.27c0.09-0.29-0.08-0.53-0.41-0.54c-0.26-0.01-0.51,0-0.77,0c0.46-0.27,0.77-0.61,0.85-1.11
				c0.03-0.22,0.06-0.44,0.06-0.66c0.01-1.14,0.01-2.28,0.01-3.43c0-0.47-0.3-0.74-0.8-0.76c-0.09,0-0.22-0.04-0.27-0.1
				c-0.21-0.26-0.47-0.33-0.79-0.31c-0.11,0.01-0.23-0.03-0.32-0.09c-0.31-0.21-0.7-0.2-1.01,0.01c-0.11,0.07-0.26,0.13-0.4,0.13
				c-0.5,0-0.82,0.28-0.83,0.76c0,0.15,0,0.31,0,0.39C9.41,4.67,9.01,4.57,8.6,4.56C7.34,4.54,6.07,4.55,4.81,4.55
				c-0.34,0-0.51,0.14-0.51,0.42c0.01,0.26,0.17,0.4,0.5,0.4c0.41,0,0.81,0,1.22,0c0.08,0,0.17,0.03,0.25,0.05c0,0.03,0,0.05,0,0.08
				C6.18,5.51,6.09,5.53,6,5.53c-0.57,0-1.13,0-1.7,0c-0.32,0-0.49,0.15-0.5,0.41c0,0.26,0.17,0.4,0.49,0.4c0.52,0,1.04,0,1.57,0
				c0.09,0,0.18,0.04,0.27,0.06c0,0.03-0.01,0.06-0.01,0.09c-0.1,0.01-0.2,0.04-0.3,0.04c-0.58,0-1.17,0-1.75,0
				c-0.37,0-0.54,0.13-0.54,0.41c0,0.27,0.18,0.4,0.55,0.4c0.55,0,1.1,0,1.64,0c0.09,0,0.18,0.02,0.26,0.04c0,0.03,0,0.06,0,0.08
				C5.91,7.48,5.82,7.51,5.73,7.52c-0.47,0.01-0.94,0-1.41,0.01c-0.3,0.01-0.46,0.16-0.46,0.42c0.01,0.24,0.16,0.38,0.45,0.39
				c0.08,0,0.16,0,0.27,0c-0.4,0.71-0.42,0.73-0.43,1.56C4.14,11,4.14,12.11,4.15,13.22c0,0.45,0.31,0.73,0.79,0.74
				c0.09,0,0.22,0.03,0.27,0.1c0.21,0.28,0.5,0.35,0.84,0.32c0.08-0.01,0.19,0.03,0.25,0.08c0.35,0.25,0.74,0.24,1.07-0.02
				c0.08-0.06,0.22-0.1,0.32-0.09c0.51,0.02,0.84-0.26,0.87-0.75c0-0.05,0.01-0.09,0.02-0.16c0.46,0.27,0.97,0.26,1.46,0.27
				c1.19,0.02,2.39,0.01,3.58,0.01c0.32,0,0.49-0.14,0.49-0.41c0-0.27-0.16-0.41-0.48-0.41c-0.41,0-0.81,0-1.22,0
				c-0.09,0-0.18-0.03-0.27-0.05c0-0.03,0-0.06,0.01-0.09c0.1-0.01,0.19-0.04,0.29-0.04c0.57,0,1.13,0,1.7,0
				c0.24,0,0.42-0.08,0.46-0.32c0.05-0.27-0.12-0.48-0.43-0.48c-0.52-0.01-1.04,0-1.56-0.01c-0.1,0-0.21-0.03-0.31-0.04
				c0-0.03,0-0.06,0-0.08C12.39,11.75,12.48,11.72,12.58,11.72z M12.06,9.57c-0.24,1.25-1.38,2.2-2.76,2.2
				c-0.4,0-0.78-0.08-1.13-0.23c0,0.67,0,1.34,0,2.01c0,0.21-0.07,0.37-0.31,0.4c-0.19,0.03-0.3-0.02-0.3-0.24c0.01-0.5,0-1,0-1.5
				c0-0.14,0.01-0.29-0.19-0.29c-0.2,0-0.19,0.16-0.19,0.3c0,0.56,0.01,1.12-0.01,1.67c0,0.11-0.11,0.27-0.21,0.33
				c-0.22,0.12-0.42-0.02-0.42-0.26c0-0.57,0-1.15,0-1.72c0-0.06,0.02-0.13-0.01-0.18c-0.05-0.08-0.13-0.15-0.2-0.22
				c-0.07,0.08-0.15,0.15-0.19,0.23c-0.03,0.05-0.01,0.13-0.01,0.2c0,0.46,0,0.91,0,1.37c0,0.17,0.05,0.37-0.25,0.37
				c-0.25,0-0.39-0.13-0.39-0.4c0-0.47,0-0.95,0-1.42c0-0.06,0.02-0.13-0.01-0.17c-0.05-0.08-0.13-0.15-0.2-0.22
				C5.23,11.86,5.16,11.92,5.11,12c-0.02,0.04-0.01,0.1-0.01,0.15c0,0.38,0,0.76,0,1.14c0,0.11,0.06,0.28-0.13,0.27
				c-0.14-0.01-0.28-0.1-0.39-0.19c-0.05-0.04-0.04-0.16-0.04-0.24c0-1.07,0-2.13,0-3.2c0-0.25,0.03-0.51,0.06-0.76
				C4.68,8.7,5.07,8.36,5.59,8.36c0.34-0.01,0.68,0,1.02,0C6.94,7.22,8.01,6.38,9.3,6.38c0.33,0,0.65,0.07,0.95,0.17
				c0-0.72,0-1.45,0-2.17c0-0.28,0.11-0.41,0.34-0.43c0.17-0.01,0.26,0.04,0.26,0.22c-0.01,0.5-0.01,1,0,1.5
				c0,0.14-0.03,0.32,0.2,0.31c0.23-0.01,0.19-0.19,0.19-0.32c0-0.54,0.01-1.08,0-1.62c0-0.2,0.08-0.33,0.28-0.37
				c0.21-0.05,0.36,0.06,0.36,0.27c0,0.57,0,1.13,0,1.7c0,0.06,0,0.12,0,0.18c0,0.14,0.04,0.28,0.21,0.25
				c0.08-0.01,0.18-0.16,0.19-0.25c0.02-0.37,0.01-0.74,0.01-1.12c0-0.15,0.01-0.31,0-0.46c-0.01-0.19,0.01-0.34,0.26-0.34
				c0.22,0,0.38,0.14,0.38,0.37c0.01,0.41,0,0.81,0,1.22c0,0.11,0,0.22,0,0.33c0,0.14-0.01,0.3,0.19,0.3
				c0.22,0.01,0.21-0.17,0.21-0.31c0-0.38,0-0.76,0-1.14c0-0.14-0.08-0.33,0.19-0.33c0.21,0,0.37,0.13,0.37,0.35
				c-0.01,1.3-0.01,2.6-0.06,3.9c-0.02,0.64-0.44,0.97-1.11,0.97C12.5,9.57,12.28,9.57,12.06,9.57z"/>
			<path class="st0" d="M9.3,11.33c1.3,0,2.35-1.01,2.35-2.26S10.6,6.82,9.3,6.82S6.95,7.83,6.95,9.07S8,11.33,9.3,11.33z"/>
		</g>
		<g>
			<path class="st4" d="M9.52,8.76c0.05-0.01,0.09-0.03,0.13-0.05c0.04-0.02,0.07-0.05,0.09-0.09c0.02-0.04,0.03-0.08,0.03-0.14
				c0-0.06-0.01-0.1-0.04-0.14C9.7,8.31,9.67,8.28,9.63,8.26C9.59,8.24,9.54,8.22,9.5,8.21C9.44,8.2,9.39,8.2,9.35,8.2H8.92v0.58
				h0.45C9.42,8.78,9.47,8.77,9.52,8.76z"/>
			<path class="st4" d="M9.72,9.34C9.67,9.32,9.62,9.3,9.56,9.3C9.5,9.29,9.45,9.28,9.39,9.28H8.92V9.9h0.56
				c0.05,0,0.1-0.01,0.15-0.02c0.05-0.01,0.09-0.03,0.13-0.05c0.04-0.03,0.07-0.06,0.1-0.1C9.89,9.69,9.9,9.64,9.9,9.58
				c0-0.06-0.02-0.12-0.05-0.16C9.81,9.39,9.77,9.36,9.72,9.34z"/>
			<path class="st4" d="M10.25,6.55c-0.3-0.1-0.61-0.17-0.95-0.17c-1.29,0-2.36,0.84-2.69,1.97C6.54,8.58,6.49,8.82,6.49,9.07
				c0,1.1,0.69,2.04,1.68,2.46c0.35,0.15,0.73,0.23,1.13,0.23c1.37,0,2.51-0.95,2.76-2.2c0.03-0.16,0.05-0.32,0.05-0.49
				C12.11,7.91,11.33,6.92,10.25,6.55z M10.43,10.01c-0.06,0.1-0.15,0.17-0.25,0.23c-0.1,0.06-0.21,0.1-0.34,0.13
				c-0.13,0.03-0.25,0.04-0.38,0.04H8.3V7.69h1.06c0.12,0,0.24,0.01,0.37,0.03c0.12,0.02,0.24,0.05,0.33,0.1
				c0.1,0.05,0.18,0.12,0.24,0.21c0.06,0.09,0.09,0.21,0.09,0.36c0,0.15-0.04,0.28-0.13,0.38c-0.09,0.1-0.21,0.17-0.35,0.22v0.01
				C10,9,10.08,9.03,10.16,9.06c0.07,0.04,0.14,0.08,0.2,0.14s0.1,0.12,0.13,0.2c0.03,0.08,0.04,0.16,0.04,0.24
				C10.52,9.79,10.49,9.91,10.43,10.01z"/>
		</g>
		<ellipse class="st5" cx="9.35" cy="9.05" rx="2.78" ry="2.69"/>
	</g>
</g>
</svg>
