<?xml version="1.0" encoding="utf-8"?>
<!-- Generator: Adobe Illustrator 26.0.1, SVG Export Plug-In . SVG Version: 6.00 Build 0)  -->
<svg version="1.1" id="Layer_1" xmlns="http://www.w3.org/2000/svg" xmlns:xlink="http://www.w3.org/1999/xlink" x="0px" y="0px"
	 viewBox="0 0 18.43 18.43" style="enable-background:new 0 0 18.43 18.43;" xml:space="preserve">
<style type="text/css">
	.st0{fill:#1D1D1B;}
	.st1{fill:#FFFFFF;}
	.st2{fill:#C6C6C6;}
	.st3{fill:none;}
	.st4{fill:#FFFFFF;stroke:#1D1D1B;stroke-width:0.05;stroke-miterlimit:10;}
	.st5{fill:none;stroke:#1D1D1B;stroke-width:0.2;stroke-miterlimit:10;}
	.st6{fill:#1D1D1B;stroke:#1D1D1B;stroke-width:0.05;stroke-linejoin:round;stroke-miterlimit:10;}
	.st7{fill:#C6C6C6;stroke:#C6C6C6;stroke-width:0.05;stroke-linejoin:round;stroke-miterlimit:10;}
	.st8{fill:#B2B2B2;}
</style>
<g>
	<g>
		<path class="st0" d="M9.21,1.8c4.09,0,7.41,3.33,7.41,7.41s-3.33,7.41-7.41,7.41c-4.09,0-7.41-3.33-7.41-7.41S5.13,1.8,9.21,1.8
			 M9.21,0.3C4.29,0.3,0.3,4.29,0.3,9.21s3.99,8.91,8.91,8.91c4.92,0,8.91-3.99,8.91-8.91S14.13,0.3,9.21,0.3L9.21,0.3z"/>
	</g>
	<g>
		<path class="st0" d="M11.93,8.13c-0.1-0.61-0.26-1.2-0.61-1.73c-0.29-0.43-0.68-0.72-1.2-0.79C10.02,5.6,9.9,5.62,9.81,5.66
			c-0.4,0.19-0.8,0.19-1.2,0C8.51,5.62,8.39,5.6,8.29,5.61c-0.27,0.03-0.52,0.13-0.74,0.3c-0.4,0.3-0.63,0.71-0.8,1.17
			C6.46,7.86,6.38,8.68,6.3,9.5C6.29,9.69,6.42,9.82,6.6,9.83c0.19,0.01,0.32-0.09,0.35-0.28c0.02-0.16,0.04-0.33,0.06-0.5
			c0.07-0.62,0.23-1.2,0.63-1.69c0.02-0.02,0.04-0.04,0.08-0.09C7.7,7.34,7.7,7.36,7.69,7.38C7.4,8.34,7.31,9.31,7.43,10.3
			c0.16,1.31,0.52,2.58,0.79,3.87c0.06,0.27,0.3,0.42,0.55,0.37c0.25-0.05,0.4-0.25,0.36-0.53c-0.08-0.76-0.19-1.52-0.26-2.29
			c-0.03-0.38-0.01-0.77-0.01-1.15c0.23,0,0.45,0,0.68,0c0.03,0.59,0,1.16-0.07,1.73c-0.07,0.57-0.14,1.14-0.21,1.72
			c-0.03,0.27,0.11,0.46,0.35,0.52c0.24,0.05,0.47-0.08,0.56-0.32c0.01-0.03,0.02-0.06,0.03-0.08c0.22-1.01,0.45-2.02,0.66-3.03
			c0.18-0.89,0.26-1.78,0.1-2.68c-0.07-0.37-0.16-0.74-0.25-1.13c0.25,0.32,0.46,0.64,0.54,1.03c0.08,0.4,0.14,0.81,0.2,1.21
			c0.03,0.22,0.17,0.32,0.37,0.3c0.19-0.02,0.3-0.17,0.28-0.38C12.05,9.01,12,8.57,11.93,8.13z"/>
		<path class="st0" d="M9.2,5.4c0.54,0,0.98-0.43,0.98-0.98c0-0.54-0.43-0.98-0.98-0.98c-0.54,0-0.98,0.43-0.98,0.98
			C8.23,4.97,8.66,5.4,9.2,5.4z"/>
	</g>
</g>
</svg>
