<?xml version="1.0" encoding="utf-8"?>
<!-- Generator: Adobe Illustrator 26.0.1, SVG Export Plug-In . SVG Version: 6.00 Build 0)  -->
<svg version="1.1" id="Layer_1" xmlns="http://www.w3.org/2000/svg" xmlns:xlink="http://www.w3.org/1999/xlink" x="0px" y="0px"
	 viewBox="0 0 18.43 18.43" style="enable-background:new 0 0 18.43 18.43;" xml:space="preserve">
<style type="text/css">
	.st0{fill:#1D1D1B;}
	.st1{fill:#FFFFFF;}
	.st2{fill:#C6C6C6;}
	.st3{fill:none;}
	.st4{fill:#FFFFFF;stroke:#1D1D1B;stroke-width:0.05;stroke-miterlimit:10;}
	.st5{fill:none;stroke:#1D1D1B;stroke-width:0.2;stroke-miterlimit:10;}
	.st6{fill:#1D1D1B;stroke:#1D1D1B;stroke-width:0.05;stroke-linejoin:round;stroke-miterlimit:10;}
	.st7{fill:#C6C6C6;stroke:#C6C6C6;stroke-width:0.05;stroke-linejoin:round;stroke-miterlimit:10;}
	.st8{fill:#B2B2B2;}
</style>
<g>
	<circle class="st0" cx="9.21" cy="9.21" r="8.91"/>
	<g>
		<path class="st1" d="M9.6,6.23c0.51,0,0.97,0,1.43,0c0.21,0,0.37,0.07,0.49,0.26c0.5,0.75,1.01,1.5,1.51,2.25
			c0.28,0.42,0.2,0.97-0.16,1.22c-0.41,0.28-0.87,0.2-1.18-0.2c-0.14-0.17-0.22-0.53-0.43-0.47c-0.15,0.04-0.1,0.42-0.12,0.64
			c-0.16,1.47-0.31,2.94-0.46,4.41c-0.04,0.4-0.12,0.47-0.52,0.47c-0.56,0-1.12-0.01-1.69,0c-0.3,0.01-0.44-0.13-0.47-0.42
			c-0.11-1.06-0.22-2.12-0.33-3.19C7.6,10.54,7.53,9.86,7.46,9.1c-0.19,0.27-0.34,0.49-0.5,0.7c-0.29,0.37-0.75,0.44-1.13,0.17
			C5.49,9.72,5.36,9.21,5.6,8.84c0.52-0.81,1.06-1.6,1.59-2.4C7.3,6.27,7.46,6.23,7.64,6.23c0.46,0,0.93,0,1.44,0"/>
		<path class="st1" d="M9.35,3.17c-0.84,0-1.53,0.68-1.53,1.53s0.68,1.53,1.53,1.53c0.84,0,1.53-0.68,1.53-1.53S10.2,3.17,9.35,3.17
			L9.35,3.17z"/>
	</g>
</g>
</svg>
