<?xml version="1.0" encoding="utf-8"?>
<!-- Generator: Adobe Illustrator 26.0.1, SVG Export Plug-In . SVG Version: 6.00 Build 0)  -->
<svg version="1.1" id="Layer_1" xmlns="http://www.w3.org/2000/svg" xmlns:xlink="http://www.w3.org/1999/xlink" x="0px" y="0px"
	 viewBox="0 0 18.43 18.43" style="enable-background:new 0 0 18.43 18.43;" xml:space="preserve">
<style type="text/css">
	.st0{fill:#1D1D1B;}
	.st1{fill:#FFFFFF;}
	.st2{fill:#C6C6C6;}
	.st3{fill:none;}
	.st4{fill:#FFFFFF;stroke:#1D1D1B;stroke-width:0.05;stroke-miterlimit:10;}
	.st5{fill:none;stroke:#1D1D1B;stroke-width:0.2;stroke-miterlimit:10;}
	.st6{fill:#1D1D1B;stroke:#1D1D1B;stroke-width:0.05;stroke-linejoin:round;stroke-miterlimit:10;}
	.st7{fill:#C6C6C6;stroke:#C6C6C6;stroke-width:0.05;stroke-linejoin:round;stroke-miterlimit:10;}
	.st8{fill:#B2B2B2;}
</style>
<g>
	<g>
		<path class="st2" d="M9.21,1.8c4.09,0,7.41,3.33,7.41,7.41s-3.33,7.41-7.41,7.41S1.8,13.3,1.8,9.21S5.13,1.8,9.21,1.8 M9.21,0.3
			C4.29,0.3,0.3,4.29,0.3,9.21c0,4.92,3.99,8.91,8.91,8.91c4.92,0,8.91-3.99,8.91-8.91C18.12,4.29,14.13,0.3,9.21,0.3L9.21,0.3z"/>
	</g>
	<g>
		<g>
			<path class="st8" d="M8.61,5.56C8.73,5.73,8.9,5.84,9.09,5.93c0.41,0.18,0.84,0.24,1.28,0.26c0.41,0.02,0.83,0.01,1.23,0.05
				c0.53,0.05,1.02,0.22,1.43,0.57c0.4,0.34,0.65,0.78,0.68,1.32c0,0.02,0.01,0.04,0.02,0.06c0,0,0,0,0,0
				c0.06,0.02,0.12,0.03,0.18,0.05c0,0.75,0,1.51,0,2.28c-0.25,0-0.5,0-0.75,0c0-0.76,0-1.52,0-2.3c0.14,0,0.28,0,0.42,0
				c0.05,0,0.09-0.02,0.14-0.03l0,0c0,0,0,0,0,0c-0.02-0.02-0.05-0.04-0.06-0.07c-0.14-0.39-0.42-0.64-0.78-0.82
				c-0.39-0.2-0.82-0.3-1.25-0.35c-0.52-0.06-1.04-0.1-1.55-0.19C9.78,6.71,9.48,6.58,9.17,6.47c-0.11-0.04-0.21-0.1-0.3-0.17
				c-0.48-0.33-0.6-0.71-0.38-1.25c-0.52-0.48-0.71-1.03-0.4-1.74c0,0.13-0.01,0.24,0,0.34C8.13,4,8.32,4.25,8.6,4.45
				C8.97,4.71,9.4,4.84,9.85,4.89c0.42,0.05,0.84,0.07,1.26,0.07c0.65,0.01,1.29,0.09,1.87,0.4c0.89,0.48,1.36,1.24,1.48,2.23
				c0.01,0.04,0,0.09-0.02,0.14c0-0.01-0.01-0.03-0.01-0.04c-0.18-0.6-0.59-0.99-1.13-1.27C12.67,6.11,12,6,11.3,5.95
				c-0.81-0.06-1.6-0.21-2.33-0.58C8.82,5.29,8.67,5.19,8.52,5.1C8.47,5.27,8.52,5.42,8.61,5.56z M14.22,10.53c0-0.77,0-1.53,0-2.3
				c0.25,0,0.49,0,0.75,0c0,0.77,0,1.53,0,2.3C14.72,10.53,14.48,10.53,14.22,10.53z"/>
			<path class="st8" d="M12.88,8.22c-0.05,0-0.1,0-0.15,0H3.47c0,0.77,0,1.54,0,2.31c0.05,0,0.1,0,0.15,0c1.79,0,3.58,0,5.38,0
				c0,0,0,0,0,0h2.47c0.47,0,0.93,0,1.4,0C12.88,9.76,12.88,9,12.88,8.22z"/>
			<polygon class="st8" points="13.74,8.19 13.74,8.19 13.74,8.19 			"/>
			<path class="st8" d="M8.97,5.37c0.73,0.37,1.52,0.52,2.33,0.58C12,6,12.67,6.11,13.3,6.43c0.54,0.27,0.95,0.67,1.13,1.27
				c0,0.01,0.01,0.03,0.01,0.04c0.02-0.05,0.02-0.09,0.02-0.14c-0.12-0.99-0.59-1.76-1.48-2.23c-0.58-0.31-1.22-0.39-1.87-0.4
				c-0.42-0.01-0.84-0.03-1.26-0.07C9.4,4.84,8.97,4.71,8.6,4.45C8.32,4.25,8.13,4,8.08,3.66c-0.01-0.1,0-0.21,0-0.34
				c-0.3,0.7-0.11,1.26,0.4,1.74C8.27,5.59,8.39,5.98,8.87,6.3c0.09,0.06,0.19,0.13,0.3,0.17c0.31,0.11,0.62,0.23,0.93,0.29
				c0.51,0.09,1.03,0.13,1.55,0.19c0.43,0.05,0.86,0.15,1.25,0.35c0.35,0.18,0.64,0.43,0.78,0.82c0.01,0.03,0.04,0.05,0.06,0.07
				c-0.01-0.02-0.02-0.04-0.02-0.06c-0.03-0.54-0.28-0.97-0.68-1.32c-0.41-0.35-0.9-0.52-1.43-0.57c-0.41-0.04-0.82-0.03-1.23-0.05
				C9.93,6.16,9.5,6.11,9.09,5.93C8.9,5.84,8.73,5.73,8.61,5.56C8.52,5.42,8.47,5.27,8.52,5.1C8.67,5.19,8.82,5.29,8.97,5.37z"/>
			<polygon class="st8" points="13.74,8.19 13.74,8.19 13.74,8.19 			"/>
			<path class="st8" d="M13.74,8.19c-0.05,0.01-0.09,0.03-0.14,0.03c-0.14,0-0.28,0-0.42,0c0,0.78,0,1.54,0,2.3c0.25,0,0.5,0,0.75,0
				c0-0.77,0-1.53,0-2.28C13.85,8.22,13.8,8.21,13.74,8.19L13.74,8.19L13.74,8.19z"/>
			<polygon class="st8" points="13.74,8.19 13.74,8.19 13.74,8.19 13.74,8.19 13.74,8.19 			"/>
			<path class="st8" d="M14.22,8.23c0,0.77,0,1.53,0,2.3c0.25,0,0.5,0,0.75,0c0-0.77,0-1.53,0-2.3C14.72,8.23,14.47,8.23,14.22,8.23
				z"/>
		</g>
		<g>
			<path class="st8" d="M9.23,0.42c-4.86,0-8.79,3.93-8.8,8.79c0,4.86,3.93,8.8,8.79,8.8c4.86,0,8.8-3.93,8.8-8.79
				C18.02,4.36,14.09,0.42,9.23,0.42z M9.22,16.51c-4.03,0-7.3-3.27-7.3-7.3c0-4.03,3.27-7.3,7.3-7.3c4.03,0,7.3,3.27,7.3,7.3
				C16.52,13.24,13.25,16.51,9.22,16.51z"/>
			<polygon class="st8" points="14.4,7.82 14.39,7.81 14.4,7.82 			"/>
			<polygon class="st8" points="14.4,7.82 14.4,7.82 14.4,7.82 			"/>
		</g>
	</g>
</g>
</svg>
