<?xml version="1.0" encoding="utf-8"?>
<!-- Generator: Adobe Illustrator 26.0.1, SVG Export Plug-In . SVG Version: 6.00 Build 0)  -->
<svg version="1.1" id="Layer_1" xmlns="http://www.w3.org/2000/svg" xmlns:xlink="http://www.w3.org/1999/xlink" x="0px" y="0px"
	 viewBox="0 0 68.03 79.37" style="enable-background:new 0 0 68.03 79.37;" xml:space="preserve">
<style type="text/css">
	.st0{fill:#FFFFFF;}
	.st1{clip-path:url(#SVGID_00000045618414249990354810000013074665023220147128_);fill:#DADADA;}
	.st2{clip-path:url(#SVGID_00000062153043251092440920000004428920927995174053_);fill:#DADADA;}
	.st3{fill:none;stroke:#1D1D1B;stroke-width:2;stroke-miterlimit:10;}
	.st4{clip-path:url(#SVGID_00000121978459499262836690000016129279677836577466_);fill:#DADADA;}
	.st5{clip-path:url(#SVGID_00000137117758301008360500000009687232923627044496_);fill:#DADADA;}
</style>
<g>
	<circle class="st0" cx="34.02" cy="39.98" r="31.91"/>
	<g>
		<defs>
			<path id="SVGID_00000088096509303059308360000010077792162659862662_" d="M4.53,63.33c5.47-2.53,10.93-5.09,16.4-7.62
				c1.8-0.83,2.76-2.3,2.54-4.25c-0.09-0.82,0.21-1.16,0.89-1.35c0.96-0.27,1.19-0.93,1.28-1.87c0.21-2.16,0.09-4.19-1.11-6.09
				c-0.41-0.65-0.56-1.47-0.8-2.22c-0.3-0.94-0.79-1.74-1.32-2.59c-1.32-2.09-2.44-4.75-1.62-6.96c0.97-2.62,0.08-4.91,0.12-7.33
				c0.01-0.87-0.06-1.75-0.07-2.62c-0.02-1.58,0.63-2.73,2.16-3.29c0.72-0.26,1.01-0.8,1.15-1.5c0.38-1.96,1.62-3.11,3.52-3.38
				c1-0.14,1.72-1.29,2.84-0.59c0.16-0.48-0.42-0.59-0.26-1.11c2.5,1.1,5.22,0.66,7.82,1.15c2.38,0.44,4.64,1.24,6.13,3.27
				c3.37,4.6,3.4,4.93,2.64,10.88c-0.12,0.91-0.17,1.82-0.25,2.73c-0.02,0.25-0.12,0.55,0.1,0.71c1.13,0.81,0.75,1.94,0.6,2.97
				c-0.22,1.52-0.37,3.24-1.27,4.4c-1.74,2.24-2.04,5.04-3.38,7.41c-0.94,1.67-0.14,3.5-0.08,5.25c0.02,0.46,0.61,0.65,1.05,0.78
				c0.75,0.23,1.02,0.61,0.92,1.46c-0.22,1.85,0.81,3.34,2.52,4.13c5.62,2.61,11.23,5.24,16.84,7.86c0.75,0.35,1.38,0.8,1.86,1.39
				V7.48H2.31V64.9C2.9,64.23,3.66,63.73,4.53,63.33z"/>
		</defs>
		<clipPath id="SVGID_00000143585941799755458910000008002128164946320007_">
			<use xlink:href="#SVGID_00000088096509303059308360000010077792162659862662_"  style="overflow:visible;"/>
		</clipPath>
		
			<circle style="clip-path:url(#SVGID_00000143585941799755458910000008002128164946320007_);fill:#DADADA;" cx="34.02" cy="39.98" r="31.91"/>
	</g>
</g>
</svg>
