<?xml version="1.0" encoding="utf-8"?>
<!-- Generator: Adobe Illustrator 26.0.1, SVG Export Plug-In . SVG Version: 6.00 Build 0)  -->
<svg version="1.1" id="Layer_1" xmlns="http://www.w3.org/2000/svg" xmlns:xlink="http://www.w3.org/1999/xlink" x="0px" y="0px"
	 viewBox="0 0 68.03 79.37" style="enable-background:new 0 0 68.03 79.37;" xml:space="preserve">
<style type="text/css">
	.st0{fill:#FFFFFF;}
	.st1{clip-path:url(#SVGID_00000109028435301409300810000000162786769608698013_);fill:#DADADA;}
	.st2{clip-path:url(#SVGID_00000047740728363983490670000002594863593976739210_);fill:#DADADA;}
	.st3{fill:none;stroke:#1D1D1B;stroke-width:2;stroke-miterlimit:10;}
	.st4{clip-path:url(#SVGID_00000140712665566962253670000006623878410977300927_);fill:#DADADA;}
	.st5{clip-path:url(#SVGID_00000043423802119230714360000003596597000091541906_);fill:#DADADA;}
</style>
<g>
	<circle class="st0" cx="34.02" cy="39.69" r="31.91"/>
	<g>
		<defs>
			<circle id="SVGID_00000105424119600788272190000009703755517509627024_" cx="34.02" cy="39.69" r="31.91"/>
		</defs>
		<clipPath id="SVGID_00000032634400488321766660000003157327792272275092_">
			<use xlink:href="#SVGID_00000105424119600788272190000009703755517509627024_"  style="overflow:visible;"/>
		</clipPath>
		<path style="clip-path:url(#SVGID_00000032634400488321766660000003157327792272275092_);fill:#DADADA;" d="M34.05,7.79
			c10.11,0,20.21,0.01,30.32-0.02c0.87,0,1.16,0.18,1.16,1.06c-0.03,19.01-0.02,38.02-0.02,57.03c0,1.08-0.19,1.2-1.32,1.07
			c-0.7-0.08-1.41-0.09-2.11-0.05c-0.6,0.03-0.89-0.15-1.11-0.69c-0.61-1.45-1.17-2.93-2.09-4.25c-1.22-1.77-2.87-2.95-5.01-3.62
			c-2.78-0.88-5.52-1.87-8.26-2.85c-2.29-0.82-3.57-2.51-4.2-4.66c-0.36-1.2-0.6-2.43-0.66-3.7c-0.04-0.94,0.45-1.05,1.18-0.88
			c0.85,0.19,1.67,0.17,2.51-0.02c0.45-0.1,0.49-0.25,0.19-0.53c-0.51-0.48-0.16-0.53,0.31-0.65c1.28-0.34,2.55-0.73,3.81-1.12
			c0.56-0.18,0.75-0.39,0.28-0.98c-1.26-1.58-1.29-3.41-0.88-5.26c0.52-2.37,1.09-4.71,1.09-7.16c0-3.46-1.08-6.62-2.58-9.71
			c-1.19-2.44-2.86-4.52-5.16-6.13c-2.42-1.69-5.15-2.09-8.05-1.63c-0.67,0.1-1.38,0.33-1.79,0.88c-0.47,0.62-0.99,0.7-1.72,0.53
			c-2.4-0.56-4.22,0.54-5.71,2.07c-2.49,2.57-3.73,5.79-4.84,9.04c-1.09,3.19-0.92,6.44-0.47,9.72c0.17,1.26,0.56,2.45,0.94,3.64
			c0.49,1.54,0.14,2.84-1.01,3.97c-0.53,0.51-0.52,0.74,0.24,0.98c1.29,0.42,2.59,0.8,3.94,1.06c0.47,0.09,0.85,0.24,0.33,0.77
			c-0.5,0.52-0.16,0.7,0.4,0.67c0.94-0.04,1.89,0.13,2.83-0.13c0.39-0.11,0.71,0.02,0.62,0.44c-0.51,2.61-0.22,5.47-2.65,7.47
			c-0.89,0.73-1.88,1.29-3,1.67c-2.88,0.97-5.8,1.87-8.62,2.98c-2.58,1.01-4.08,3.06-5.1,5.43c-0.32,0.74-0.68,1.46-0.96,2.21
			c-0.14,0.37-0.38,0.44-0.74,0.44c-0.98-0.01-1.96-0.02-2.94,0c-0.49,0.01-0.74-0.14-0.7-0.63c0.02-0.18,0-0.37,0-0.55
			c0-19.01,0-38.01,0-57.02c0-0.48,0.42-0.88,0.93-0.88C13.65,7.79,23.85,7.79,34.05,7.79z"/>
	</g>
</g>
</svg>
